<svg width="462" height="273" viewBox="0 0 462 273" fill="none" xmlns="http://www.w3.org/2000/svg">
<path d="M462 0H0V273H462V0Z" fill="white"/>
<path d="M220 128H299V142H220V128Z" fill="#232323"/>
<path d="M318 190V164H332V190H318Z" fill="#232323"/>
<path d="M403 191V165H417V191H403Z" fill="#232323"/>
<path d="M318 107V81H332V107H318Z" fill="#232323"/>
<path d="M354 128H382V142H354V128Z" fill="#232323"/>
<path d="M75.6953 52.5V24.5H80.3782V52.5C80.3782 60.2467 77.6524 66.85 72.2006 72.31C66.7489 77.77 60.1555 80.5 52.4206 80.5C44.6856 80.5 38.0923 77.77 32.6405 72.31C27.1888 66.85 24.4629 60.2467 24.4629 52.5V24.5H29.1458V52.5C29.1458 56.7 30.171 60.5967 32.2212 64.19C34.318 67.7833 37.1604 70.63 40.7483 72.73C44.3361 74.7831 48.2269 75.81 52.4206 75.81C56.6142 75.81 60.505 74.7831 64.0929 72.73C67.6808 70.63 70.5001 67.7833 72.5501 64.19C74.6469 60.5967 75.6953 56.7 75.6953 52.5ZM102.535 32.69C107.986 27.23 114.579 24.5 122.315 24.5C130.05 24.5 136.643 27.23 142.095 32.69C147.546 38.15 150.272 44.7533 150.272 52.5V80.5H145.589V52.5C145.589 48.3 144.541 44.4033 142.444 40.81C140.394 37.2167 137.575 34.3933 133.987 32.34C130.399 30.24 126.508 29.19 122.315 29.19C118.121 29.19 114.23 30.24 110.642 32.34C107.055 34.3933 104.212 37.2167 102.115 40.81C100.065 44.4033 99.0399 48.3 99.0399 52.5V80.5H94.357V52.5C94.357 44.7533 97.0829 38.15 102.535 32.69ZM220.166 39.69C220.166 42.35 219.514 44.8233 218.209 47.11C216.951 49.35 215.251 51.1467 213.107 52.5C215.251 53.8533 216.951 55.6733 218.209 57.96C219.514 60.2 220.166 62.65 220.166 65.31C220.166 69.51 218.676 73.1031 215.693 76.09C212.758 79.03 209.193 80.5 204.999 80.5H164.251V50.12H204.999C207.888 50.12 210.358 49.1167 212.408 47.11C214.458 45.0567 215.484 42.5833 215.484 39.69C215.484 36.7967 214.458 34.3233 212.408 32.27C210.358 30.2167 207.888 29.19 204.999 29.19H164.251V24.5H204.999C209.193 24.5 212.758 25.9933 215.693 28.98C218.676 31.92 220.166 35.49 220.166 39.69ZM212.408 72.73C214.458 70.6769 215.484 68.2033 215.484 65.31C215.484 62.4167 214.458 59.9667 212.408 57.96C210.358 55.9067 207.888 54.88 204.999 54.88H168.934V75.81H204.999C207.888 75.81 210.358 74.7831 212.408 72.73Z" fill="#232323"/>
<path d="M75.6953 24.5V21H72.2006V24.5H75.6953ZM80.3782 24.5H83.8729V21H80.3782V24.5ZM24.4629 24.5V21H20.9682V24.5H24.4629ZM29.1458 24.5H32.6405V21H29.1458V24.5ZM32.2212 64.19L29.1869 65.9265L29.1954 65.9413L29.2039 65.956L32.2212 64.19ZM40.7483 72.73L38.985 75.7519L38.9996 75.7603L39.0144 75.7687L40.7483 72.73ZM64.0929 72.73L65.8268 75.7687L65.8415 75.7603L65.8562 75.7519L64.0929 72.73ZM72.5501 64.19L69.5328 62.424L69.5243 62.4387L69.5158 62.4535L72.5501 64.19ZM79.19 52.5V24.5H72.2006V52.5H79.19ZM75.6953 28H80.3782V21H75.6953V28ZM76.8835 24.5V52.5H83.8729V24.5H76.8835ZM76.8835 52.5C76.8835 59.3218 74.5232 65.0339 69.7295 69.8352L74.6721 74.7852C80.7815 68.6661 83.8729 61.1715 83.8729 52.5H76.8835ZM69.7295 69.8352C64.9355 74.6361 59.232 77 52.4206 77V84C61.079 84 68.5622 80.9039 74.6721 74.7852L69.7295 69.8352ZM52.4206 77C45.6091 77 39.9056 74.6361 35.1117 69.8352L30.1694 74.7852C36.279 80.9039 43.7622 84 52.4206 84V77ZM35.1117 69.8352C30.3177 65.0339 27.9576 59.3218 27.9576 52.5H20.9682C20.9682 61.1715 24.0599 68.6661 30.1694 74.7852L35.1117 69.8352ZM27.9576 52.5V24.5H20.9682V52.5H27.9576ZM24.4629 28H29.1458V21H24.4629V28ZM25.6511 24.5V52.5H32.6405V24.5H25.6511ZM25.6511 52.5C25.6511 57.2996 26.8303 61.7961 29.1869 65.9265L35.2554 62.4535C33.5116 59.3972 32.6405 56.1004 32.6405 52.5H25.6511ZM29.2039 65.956C31.604 70.0686 34.8782 73.3481 38.985 75.7519L42.5115 69.7082C39.4425 67.9119 37.032 65.4977 35.2384 62.424L29.2039 65.956ZM39.0144 75.7687C43.1385 78.1291 47.6282 79.31 52.4206 79.31V72.31C48.8256 72.31 45.5338 71.4378 42.4821 69.6912L39.0144 75.7687ZM52.4206 79.31C57.2129 79.31 61.7027 78.1291 65.8268 75.7687L62.359 69.6912C59.3073 71.4378 56.0155 72.31 52.4206 72.31V79.31ZM65.8562 75.7519C69.9696 73.3439 73.2287 70.0553 75.5842 65.9265L69.5158 62.4535C67.7713 65.5111 65.3918 67.9159 62.3296 69.7082L65.8562 75.7519ZM75.5674 65.956C77.9801 61.8217 79.19 57.3147 79.19 52.5H72.2006C72.2006 56.0853 71.3136 59.3717 69.5328 62.424L75.5674 65.956ZM150.272 80.5V84H153.767V80.5H150.272ZM145.589 80.5H142.095V84H145.589V80.5ZM142.444 40.81L139.41 42.5465L139.418 42.5613L139.427 42.576L142.444 40.81ZM133.987 32.34L132.224 35.3618L132.238 35.3704L132.253 35.3788L133.987 32.34ZM110.642 32.34L112.376 35.3788L112.391 35.3704L112.406 35.3618L110.642 32.34ZM102.115 40.81L99.098 39.044L99.0896 39.0587L99.0812 39.0735L102.115 40.81ZM99.0399 80.5V84H102.535V80.5H99.0399ZM94.357 80.5H90.8623V84H94.357V80.5ZM105.006 35.1649C109.799 30.3636 115.503 28 122.315 28V21C113.656 21 106.173 24.0964 100.063 30.2152L105.006 35.1649ZM122.315 28C129.126 28 134.83 30.3636 139.623 35.1649L144.566 30.2152C138.456 24.0964 130.973 21 122.315 21V28ZM139.623 35.1649C144.417 39.9661 146.778 45.6782 146.778 52.5H153.767C153.767 43.8285 150.676 36.3339 144.566 30.2152L139.623 35.1649ZM146.778 52.5V80.5H153.767V52.5H146.778ZM150.272 77H145.589V84H150.272V77ZM149.084 80.5V52.5H142.095V80.5H149.084ZM149.084 52.5C149.084 47.6853 147.874 43.1783 145.462 39.044L139.427 42.576C141.208 45.6283 142.095 48.9147 142.095 52.5H149.084ZM145.478 39.0735C143.119 34.9376 139.85 31.6646 135.721 29.3012L132.253 35.3788C135.299 37.1221 137.669 39.4958 139.41 42.5465L145.478 39.0735ZM135.75 29.3182C131.622 26.902 127.122 25.69 122.315 25.69V32.69C125.895 32.69 129.176 33.5779 132.224 35.3618L135.75 29.3182ZM122.315 25.69C117.507 25.69 113.007 26.902 108.879 29.3182L112.406 35.3618C115.453 33.5779 118.735 32.69 122.315 32.69V25.69ZM108.908 29.3012C104.786 31.6606 101.502 34.9243 99.098 39.044L105.133 42.576C106.922 39.5091 109.323 37.126 112.376 35.3788L108.908 29.3012ZM99.0812 39.0735C96.7243 43.2039 95.5452 47.7004 95.5452 52.5H102.535C102.535 48.8996 103.406 45.6028 105.149 42.5465L99.0812 39.0735ZM95.5452 52.5V80.5H102.535V52.5H95.5452ZM99.0399 77H94.357V84H99.0399V77ZM97.8517 80.5V52.5H90.8623V80.5H97.8517ZM97.8517 52.5C97.8517 45.6782 100.212 39.9661 105.006 35.1649L100.063 30.2152C93.9538 36.3339 90.8623 43.8285 90.8623 52.5H97.8517ZM218.209 47.11L215.175 45.3735L215.169 45.3838L215.163 45.3941L218.209 47.11ZM213.107 52.5L211.243 49.5393L206.554 52.5L211.243 55.4607L213.107 52.5ZM218.209 57.96L215.149 59.6491L215.169 59.6866L215.191 59.7236L218.209 57.96ZM164.251 80.5H160.756V84H164.251V80.5ZM164.251 50.12V46.62H160.756V50.12H164.251ZM212.408 47.11L214.851 49.6131L214.865 49.5991L214.88 49.5849L212.408 47.11ZM164.251 29.19H160.756V32.69H164.251V29.19ZM164.251 24.5V21H160.756V24.5H164.251ZM215.693 28.98L213.203 31.4353L213.222 31.4549L213.241 31.4743L215.693 28.98ZM212.408 57.96L209.937 60.4349L209.951 60.4491L209.965 60.4631L212.408 57.96ZM168.934 54.88V51.38H165.439V54.88H168.934ZM168.934 75.81H165.439V79.31H168.934V75.81ZM216.672 39.69C216.672 41.7473 216.175 43.6212 215.175 45.3735L221.243 48.8465C222.853 46.0254 223.661 42.9527 223.661 39.69H216.672ZM215.163 45.3941C214.186 47.134 212.889 48.5002 211.243 49.5393L214.971 55.4607C217.612 53.7932 219.716 51.566 221.255 48.8259L215.163 45.3941ZM211.243 55.4607C212.872 56.489 214.167 57.8653 215.149 59.6491L221.27 56.2709C219.735 53.4813 217.629 51.2176 214.971 49.5393L211.243 55.4607ZM215.191 59.7236C216.175 61.414 216.672 63.253 216.672 65.31H223.661C223.661 62.047 222.853 58.986 221.228 56.1964L215.191 59.7236ZM216.672 65.31C216.672 68.5759 215.553 71.281 213.222 73.6148L218.165 78.5652C221.798 74.9259 223.661 70.4445 223.661 65.31H216.672ZM213.222 73.6148C210.949 75.8912 208.277 77 204.999 77V84C210.109 84 214.566 82.1688 218.165 78.5652L213.222 73.6148ZM204.999 77H164.251V84H204.999V77ZM167.746 80.5V50.12H160.756V80.5H167.746ZM164.251 53.62H204.999V46.62H164.251V53.62ZM204.999 53.62C208.793 53.62 212.142 52.2644 214.851 49.6131L209.965 44.6069C208.574 45.9689 206.984 46.62 204.999 46.62V53.62ZM214.88 49.5849C217.582 46.8779 218.978 43.5154 218.978 39.69H211.989C211.989 41.6513 211.335 43.2355 209.937 44.6351L214.88 49.5849ZM218.978 39.69C218.978 35.8646 217.582 32.5021 214.88 29.7951L209.937 34.7449C211.335 36.1445 211.989 37.7287 211.989 39.69H218.978ZM214.88 29.7951C212.176 27.0881 208.819 25.69 204.999 25.69V32.69C206.958 32.69 208.54 33.3452 209.937 34.7449L214.88 29.7951ZM204.999 25.69H164.251V32.69H204.999V25.69ZM167.746 29.19V24.5H160.756V29.19H167.746ZM164.251 28H204.999V21H164.251V28ZM204.999 28C208.259 28 210.926 29.1186 213.203 31.4353L218.184 26.5247C214.59 22.868 210.127 21 204.999 21V28ZM213.241 31.4743C215.555 33.7548 216.672 36.4255 216.672 39.69H223.661C223.661 34.5545 221.796 30.0852 218.145 26.4857L213.241 31.4743ZM214.88 75.2052C217.582 72.4976 218.978 69.1354 218.978 65.31H211.989C211.989 67.2713 211.335 68.8555 209.937 70.2548L214.88 75.2052ZM218.978 65.31C218.978 61.4827 217.58 58.1278 214.851 55.4569L209.965 60.4631C211.337 61.8055 211.989 63.3506 211.989 65.31H218.978ZM214.88 55.4852C212.176 52.7781 208.819 51.38 204.999 51.38V58.38C206.958 58.38 208.54 59.0352 209.937 60.4349L214.88 55.4852ZM204.999 51.38H168.934V58.38H204.999V51.38ZM165.439 54.88V75.81H172.429V54.88H165.439ZM168.934 79.31H204.999V72.31H168.934V79.31ZM204.999 79.31C208.819 79.31 212.176 77.9121 214.88 75.2052L209.937 70.2548C208.54 71.6548 206.958 72.31 204.999 72.31V79.31Z" fill="#232323"/>
<path d="M24.4629 216.72H65.2112V221.48H29.1458V247.1H24.4629V216.72ZM80.3782 195.79H24.4629V191.1H80.3782V195.79ZM135.105 242.41H146.079H150.272V247.1H135.105H94.357V243.46V242.41V191.1H99.0399V242.41H135.105Z" fill="#232323"/>
<path d="M24.4629 216.72V213.22H20.9682V216.72H24.4629ZM65.2112 216.72H68.7059V213.22H65.2112V216.72ZM65.2112 221.48V224.98H68.7059V221.48H65.2112ZM29.1458 221.48V217.98H25.6511V221.48H29.1458ZM29.1458 247.1V250.6H32.6405V247.1H29.1458ZM24.4629 247.1H20.9682V250.6H24.4629V247.1ZM80.3782 195.79V199.29H83.8729V195.79H80.3782ZM24.4629 195.79H20.9682V199.29H24.4629V195.79ZM24.4629 191.1V187.6H20.9682V191.1H24.4629ZM80.3782 191.1H83.8729V187.6H80.3782V191.1ZM24.4629 220.22H65.2112V213.22H24.4629V220.22ZM61.7165 216.72V221.48H68.7059V216.72H61.7165ZM65.2112 217.98H29.1458V224.98H65.2112V217.98ZM25.6511 221.48V247.1H32.6405V221.48H25.6511ZM29.1458 243.6H24.4629V250.6H29.1458V243.6ZM27.9576 247.1V216.72H20.9682V247.1H27.9576ZM80.3782 192.29H24.4629V199.29H80.3782V192.29ZM27.9576 195.79V191.1H20.9682V195.79H27.9576ZM24.4629 194.6H80.3782V187.6H24.4629V194.6ZM76.8835 191.1V195.79H83.8729V191.1H76.8835ZM150.272 242.41H153.767V238.91H150.272V242.41ZM150.272 247.1V250.6H153.767V247.1H150.272ZM94.357 247.1H90.8623V250.6H94.357V247.1ZM94.357 191.1V187.6H90.8623V191.1H94.357ZM99.0399 191.1H102.535V187.6H99.0399V191.1ZM99.0399 242.41H95.5452V245.91H99.0399V242.41ZM135.105 245.91H146.079V238.91H135.105V245.91ZM146.079 245.91H150.272V238.91H146.079V245.91ZM146.778 242.41V247.1H153.767V242.41H146.778ZM150.272 243.6H135.105V250.6H150.272V243.6ZM135.105 243.6H94.357V250.6H135.105V243.6ZM97.8517 247.1V243.46H90.8623V247.1H97.8517ZM97.8517 243.46V242.41H90.8623V243.46H97.8517ZM97.8517 242.41V191.1H90.8623V242.41H97.8517ZM94.357 194.6H99.0399V187.6H94.357V194.6ZM95.5452 191.1V242.41H102.535V191.1H95.5452ZM99.0399 245.91H135.105V238.91H99.0399V245.91Z" fill="#232323"/>
<path d="M215.484 219.1V191.1H220.166V219.1C220.166 226.847 217.441 233.45 211.989 238.91C206.537 244.37 199.944 247.1 192.209 247.1C184.474 247.1 177.88 244.37 172.429 238.91C166.977 233.45 164.251 226.847 164.251 219.1V191.1H168.934V219.1C168.934 223.3 169.959 227.197 172.009 230.79C174.106 234.383 176.949 237.23 180.536 239.33C184.124 241.383 188.015 242.41 192.209 242.41C196.402 242.41 200.293 241.383 203.881 239.33C207.469 237.23 210.288 234.383 212.338 230.79C214.435 227.197 215.484 223.3 215.484 219.1ZM283.421 191.1H290.061L265.388 219.1L290.061 247.1H283.421L262.103 222.88L240.785 247.1H234.145L258.818 219.1L234.145 191.1H240.785L262.103 215.32L283.421 191.1ZM305.255 199.29C310.707 193.83 317.3 191.1 325.035 191.1C332.77 191.1 339.363 193.83 344.815 199.29C350.267 204.75 352.992 211.353 352.992 219.1C352.992 226.847 350.267 233.45 344.815 238.91C339.363 244.37 332.77 247.1 325.035 247.1C317.3 247.1 310.707 244.37 305.255 238.91C299.803 233.45 297.077 226.847 297.077 219.1C297.077 211.353 299.803 204.75 305.255 199.29ZM313.363 239.33C316.95 241.383 320.841 242.41 325.035 242.41C329.228 242.41 333.119 241.383 336.707 239.33C340.295 237.23 343.114 234.383 345.164 230.79C347.261 227.197 348.31 223.3 348.31 219.1C348.31 214.9 347.261 211.003 345.164 207.41C343.114 203.817 340.295 200.993 336.707 198.94C333.119 196.84 329.228 195.79 325.035 195.79C320.841 195.79 316.95 196.84 313.363 198.94C309.775 200.993 306.932 203.817 304.835 207.41C302.785 211.003 301.76 214.9 301.76 219.1C301.76 223.3 302.785 227.197 304.835 230.79C306.932 234.383 309.775 237.23 313.363 239.33Z" fill="#232323"/>
<path d="M215.484 191.1V187.6H211.989V191.1H215.484ZM220.166 191.1H223.661V187.6H220.166V191.1ZM164.251 191.1V187.6H160.756V191.1H164.251ZM168.934 191.1H172.429V187.6H168.934V191.1ZM172.009 230.79L168.975 232.527L168.984 232.541L168.992 232.556L172.009 230.79ZM180.536 239.33L178.773 242.352L178.788 242.36L178.802 242.369L180.536 239.33ZM203.881 239.33L205.615 242.369L205.63 242.36L205.645 242.352L203.881 239.33ZM212.338 230.79L209.321 229.024L209.313 229.039L209.304 229.053L212.338 230.79ZM218.978 219.1V191.1H211.989V219.1H218.978ZM215.484 194.6H220.166V187.6H215.484V194.6ZM216.672 191.1V219.1H223.661V191.1H216.672ZM216.672 219.1C216.672 225.922 214.311 231.634 209.517 236.435L214.46 241.385C220.57 235.266 223.661 227.772 223.661 219.1H216.672ZM209.517 236.435C204.724 241.236 199.02 243.6 192.209 243.6V250.6C200.867 250.6 208.35 247.504 214.46 241.385L209.517 236.435ZM192.209 243.6C185.398 243.6 179.694 241.236 174.9 236.435L169.957 241.385C176.067 247.504 183.55 250.6 192.209 250.6V243.6ZM174.9 236.435C170.106 231.634 167.746 225.922 167.746 219.1H160.756C160.756 227.772 163.848 235.266 169.957 241.385L174.9 236.435ZM167.746 219.1V191.1H160.756V219.1H167.746ZM164.251 194.6H168.934V187.6H164.251V194.6ZM165.439 191.1V219.1H172.429V191.1H165.439ZM165.439 219.1C165.439 223.9 166.618 228.396 168.975 232.527L175.043 229.053C173.3 225.997 172.429 222.7 172.429 219.1H165.439ZM168.992 232.556C171.392 236.669 174.667 239.948 178.773 242.352L182.3 236.308C179.231 234.512 176.82 232.098 175.027 229.024L168.992 232.556ZM178.802 242.369C182.927 244.729 187.416 245.91 192.209 245.91V238.91C188.614 238.91 185.322 238.038 182.271 236.291L178.802 242.369ZM192.209 245.91C197.001 245.91 201.491 244.729 205.615 242.369L202.147 236.291C199.095 238.038 195.803 238.91 192.209 238.91V245.91ZM205.645 242.352C209.758 239.944 213.017 236.655 215.372 232.527L209.304 229.053C207.56 232.111 205.18 234.516 202.118 236.308L205.645 242.352ZM215.356 232.556C217.768 228.422 218.978 223.915 218.978 219.1H211.989C211.989 222.685 211.102 225.972 209.321 229.024L215.356 232.556ZM283.421 191.1V187.6H281.842L280.799 188.786L283.421 191.1ZM290.061 191.1L292.681 193.416L297.805 187.6H290.061V191.1ZM265.388 219.1L262.768 216.784L260.727 219.1L262.768 221.416L265.388 219.1ZM290.061 247.1V250.6H297.805L292.681 244.784L290.061 247.1ZM283.421 247.1L280.799 249.414L281.842 250.6H283.421V247.1ZM262.103 222.88L264.725 220.566L262.103 217.587L259.481 220.566L262.103 222.88ZM240.785 247.1V250.6H242.363L243.407 249.414L240.785 247.1ZM234.145 247.1L231.525 244.784L226.4 250.6H234.145V247.1ZM258.818 219.1L261.438 221.416L263.479 219.1L261.438 216.784L258.818 219.1ZM234.145 191.1V187.6H226.4L231.525 193.416L234.145 191.1ZM240.785 191.1L243.407 188.786L242.363 187.6H240.785V191.1ZM262.103 215.32L259.481 217.634L262.103 220.613L264.725 217.634L262.103 215.32ZM283.421 194.6H290.061V187.6H283.421V194.6ZM287.44 188.784L262.768 216.784L268.008 221.416L292.681 193.416L287.44 188.784ZM262.768 221.416L287.44 249.416L292.681 244.784L268.008 216.784L262.768 221.416ZM290.061 243.6H283.421V250.6H290.061V243.6ZM286.042 244.786L264.725 220.566L259.481 225.194L280.799 249.414L286.042 244.786ZM259.481 220.566L238.163 244.786L243.407 249.414L264.725 225.194L259.481 220.566ZM240.785 243.6H234.145V250.6H240.785V243.6ZM236.766 249.416L261.438 221.416L256.198 216.784L231.525 244.784L236.766 249.416ZM261.438 216.784L236.766 188.784L231.525 193.416L256.198 221.416L261.438 216.784ZM234.145 194.6H240.785V187.6H234.145V194.6ZM238.163 193.414L259.481 217.634L264.725 213.006L243.407 188.786L238.163 193.414ZM264.725 217.634L286.042 193.414L280.799 188.786L259.481 213.006L264.725 217.634ZM313.363 239.33L311.599 242.352L311.614 242.36L311.628 242.369L313.363 239.33ZM336.707 239.33L338.441 242.369L338.456 242.36L338.471 242.352L336.707 239.33ZM345.164 230.79L342.147 229.024L342.139 229.039L342.13 229.053L345.164 230.79ZM345.164 207.41L342.13 209.147L342.139 209.161L342.147 209.176L345.164 207.41ZM336.707 198.94L334.944 201.962L334.958 201.97L334.973 201.979L336.707 198.94ZM313.363 198.94L315.097 201.979L315.111 201.97L315.126 201.962L313.363 198.94ZM304.835 207.41L301.818 205.644L301.81 205.659L301.801 205.673L304.835 207.41ZM304.835 230.79L301.801 232.527L301.81 232.541L301.818 232.556L304.835 230.79ZM307.726 201.765C312.52 196.964 318.224 194.6 325.035 194.6V187.6C316.376 187.6 308.893 190.696 302.784 196.815L307.726 201.765ZM325.035 194.6C331.846 194.6 337.55 196.964 342.344 201.765L347.286 196.815C341.176 190.696 333.693 187.6 325.035 187.6V194.6ZM342.344 201.765C347.137 206.566 349.498 212.279 349.498 219.1H356.487C356.487 210.428 353.396 202.934 347.286 196.815L342.344 201.765ZM349.498 219.1C349.498 225.922 347.137 231.634 342.344 236.435L347.286 241.385C353.396 235.266 356.487 227.772 356.487 219.1H349.498ZM342.344 236.435C337.55 241.236 331.846 243.6 325.035 243.6V250.6C333.693 250.6 341.176 247.504 347.286 241.385L342.344 236.435ZM325.035 243.6C318.224 243.6 312.52 241.236 307.726 236.435L302.784 241.385C308.893 247.504 316.376 250.6 325.035 250.6V243.6ZM307.726 236.435C302.932 231.634 300.572 225.922 300.572 219.1H293.582C293.582 227.772 296.674 235.266 302.784 241.385L307.726 236.435ZM300.572 219.1C300.572 212.279 302.932 206.566 307.726 201.765L302.784 196.815C296.674 202.934 293.582 210.428 293.582 219.1H300.572ZM311.628 242.369C315.753 244.729 320.242 245.91 325.035 245.91V238.91C321.44 238.91 318.148 238.038 315.097 236.291L311.628 242.369ZM325.035 245.91C329.827 245.91 334.317 244.729 338.441 242.369L334.973 236.291C331.921 238.038 328.629 238.91 325.035 238.91V245.91ZM338.471 242.352C342.584 239.944 345.843 236.655 348.198 232.527L342.13 229.053C340.386 232.111 338.006 234.516 334.944 236.308L338.471 242.352ZM348.182 232.556C350.594 228.422 351.804 223.915 351.804 219.1H344.815C344.815 222.685 343.929 225.972 342.147 229.024L348.182 232.556ZM351.804 219.1C351.804 214.285 350.594 209.778 348.182 205.644L342.147 209.176C343.929 212.228 344.815 215.515 344.815 219.1H351.804ZM348.198 205.673C345.839 201.538 342.571 198.265 338.441 195.901L334.973 201.979C338.02 203.722 340.389 206.096 342.13 209.147L348.198 205.673ZM338.471 195.918C334.343 193.502 329.842 192.29 325.035 192.29V199.29C328.615 199.29 331.896 200.178 334.944 201.962L338.471 195.918ZM325.035 192.29C320.228 192.29 315.727 193.502 311.599 195.918L315.126 201.962C318.173 200.178 321.455 199.29 325.035 199.29V192.29ZM311.628 195.901C307.506 198.26 304.222 201.524 301.818 205.644L307.853 209.176C309.642 206.109 312.044 203.726 315.097 201.979L311.628 195.901ZM301.801 205.673C299.445 209.804 298.265 214.3 298.265 219.1H305.255C305.255 215.5 306.126 212.203 307.87 209.147L301.801 205.673ZM298.265 219.1C298.265 223.9 299.445 228.396 301.801 232.527L307.87 229.053C306.126 225.997 305.255 222.7 305.255 219.1H298.265ZM301.818 232.556C304.218 236.669 307.493 239.948 311.599 242.352L315.126 236.308C312.057 234.512 309.646 232.098 307.853 229.024L301.818 232.556Z" fill="#232323"/>
<path d="M102.535 115.99C107.986 110.53 114.579 107.8 122.315 107.8C130.05 107.8 136.643 110.53 142.095 115.99C147.546 121.45 150.272 128.053 150.272 135.8V163.8H145.589V135.8C145.589 131.6 144.541 127.703 142.444 124.11C140.394 120.517 137.575 117.693 133.987 115.64C130.399 113.54 126.508 112.49 122.315 112.49C118.121 112.49 114.23 113.54 110.642 115.64C107.055 117.693 104.212 120.517 102.115 124.11C100.065 127.703 99.0399 131.6 99.0399 135.8V163.8H94.357V135.8C94.357 128.053 97.0829 121.45 102.535 115.99ZM172.429 115.99C177.88 110.53 184.474 107.8 192.209 107.8C199.944 107.8 206.537 110.53 211.989 115.99C217.441 121.45 220.166 128.053 220.166 135.8C220.166 143.547 217.441 150.15 211.989 155.61C206.537 161.07 199.944 163.8 192.209 163.8C184.474 163.8 177.88 161.07 172.429 155.61C166.977 150.15 164.251 143.547 164.251 135.8C164.251 128.053 166.977 121.45 172.429 115.99ZM180.536 156.03C184.124 158.083 188.015 159.11 192.209 159.11C196.402 159.11 200.293 158.083 203.881 156.03C207.469 153.93 210.288 151.083 212.338 147.49C214.435 143.897 215.483 140 215.483 135.8C215.483 131.6 214.435 127.703 212.338 124.11C210.288 120.517 207.469 117.693 203.881 115.64C200.293 113.54 196.402 112.49 192.209 112.49C188.015 112.49 184.124 113.54 180.536 115.64C176.949 117.693 174.106 120.517 172.009 124.11C169.959 127.703 168.934 131.6 168.934 135.8C168.934 140 169.959 143.897 172.009 147.49C174.106 151.083 176.949 153.93 180.536 156.03Z" fill="#232323"/>
<path d="M150.272 163.8V167.3H153.767V163.8H150.272ZM145.589 163.8H142.095V167.3H145.589V163.8ZM142.444 124.11L139.41 125.847L139.418 125.861L139.427 125.876L142.444 124.11ZM133.987 115.64L132.224 118.662L132.238 118.67L132.253 118.679L133.987 115.64ZM110.642 115.64L112.376 118.679L112.391 118.67L112.406 118.662L110.642 115.64ZM102.115 124.11L99.098 122.344L99.0896 122.359L99.0812 122.373L102.115 124.11ZM99.0399 163.8V167.3H102.535V163.8H99.0399ZM94.357 163.8H90.8623V167.3H94.357V163.8ZM105.006 118.465C109.799 113.664 115.503 111.3 122.315 111.3V104.3C113.656 104.3 106.173 107.396 100.063 113.515L105.006 118.465ZM122.315 111.3C129.126 111.3 134.83 113.664 139.623 118.465L144.566 113.515C138.456 107.396 130.973 104.3 122.315 104.3V111.3ZM139.623 118.465C144.417 123.266 146.778 128.979 146.778 135.8H153.767C153.767 127.128 150.676 119.634 144.566 113.515L139.623 118.465ZM146.778 135.8V163.8H153.767V135.8H146.778ZM150.272 160.3H145.589V167.3H150.272V160.3ZM149.084 163.8V135.8H142.095V163.8H149.084ZM149.084 135.8C149.084 130.985 147.874 126.478 145.461 122.344L139.427 125.876C141.208 128.928 142.095 132.215 142.095 135.8H149.084ZM145.478 122.373C143.119 118.238 139.85 114.964 135.721 112.601L132.253 118.679C135.299 120.422 137.669 122.796 139.41 125.847L145.478 122.373ZM135.75 112.618C131.622 110.202 127.122 108.99 122.315 108.99V115.99C125.895 115.99 129.176 116.878 132.224 118.662L135.75 112.618ZM122.315 108.99C117.507 108.99 113.007 110.202 108.879 112.618L112.406 118.662C115.453 116.878 118.735 115.99 122.315 115.99V108.99ZM108.908 112.601C104.786 114.96 101.502 118.224 99.098 122.344L105.133 125.876C106.922 122.809 109.323 120.426 112.376 118.679L108.908 112.601ZM99.0812 122.373C96.7243 126.504 95.5452 131 95.5452 135.8H102.535C102.535 132.2 103.406 128.903 105.149 125.847L99.0812 122.373ZM95.5452 135.8V163.8H102.535V135.8H95.5452ZM99.0399 160.3H94.357V167.3H99.0399V160.3ZM97.8517 163.8V135.8H90.8623V163.8H97.8517ZM97.8517 135.8C97.8517 128.979 100.212 123.266 105.006 118.465L100.063 113.515C93.9537 119.634 90.8623 127.128 90.8623 135.8H97.8517ZM180.536 156.03L178.773 159.052L178.788 159.06L178.802 159.069L180.536 156.03ZM203.881 156.03L205.615 159.069L205.63 159.06L205.645 159.052L203.881 156.03ZM212.338 147.49L209.321 145.724L209.313 145.739L209.304 145.753L212.338 147.49ZM212.338 124.11L209.304 125.847L209.313 125.861L209.321 125.876L212.338 124.11ZM203.881 115.64L202.118 118.662L202.132 118.67L202.147 118.679L203.881 115.64ZM180.536 115.64L182.271 118.679L182.285 118.67L182.3 118.662L180.536 115.64ZM172.009 124.11L168.992 122.344L168.984 122.359L168.975 122.373L172.009 124.11ZM172.009 147.49L168.975 149.227L168.984 149.241L168.992 149.256L172.009 147.49ZM174.9 118.465C179.694 113.664 185.398 111.3 192.209 111.3V104.3C183.55 104.3 176.067 107.396 169.957 113.515L174.9 118.465ZM192.209 111.3C199.02 111.3 204.724 113.664 209.517 118.465L214.46 113.515C208.35 107.396 200.867 104.3 192.209 104.3V111.3ZM209.517 118.465C214.311 123.266 216.672 128.979 216.672 135.8H223.661C223.661 127.128 220.57 119.634 214.46 113.515L209.517 118.465ZM216.672 135.8C216.672 142.622 214.311 148.334 209.517 153.135L214.46 158.085C220.57 151.966 223.661 144.472 223.661 135.8H216.672ZM209.517 153.135C204.724 157.936 199.02 160.3 192.209 160.3V167.3C200.867 167.3 208.35 164.204 214.46 158.085L209.517 153.135ZM192.209 160.3C185.398 160.3 179.694 157.936 174.9 153.135L169.957 158.085C176.067 164.204 183.55 167.3 192.209 167.3V160.3ZM174.9 153.135C170.106 148.334 167.746 142.622 167.746 135.8H160.756C160.756 144.472 163.848 151.966 169.957 158.085L174.9 153.135ZM167.746 135.8C167.746 128.979 170.106 123.266 174.9 118.465L169.957 113.515C163.848 119.634 160.756 127.128 160.756 135.8H167.746ZM178.802 159.069C182.927 161.429 187.416 162.61 192.209 162.61V155.61C188.614 155.61 185.322 154.738 182.271 152.991L178.802 159.069ZM192.209 162.61C197.001 162.61 201.491 161.429 205.615 159.069L202.147 152.991C199.095 154.738 195.803 155.61 192.209 155.61V162.61ZM205.645 159.052C209.758 156.644 213.017 153.355 215.372 149.227L209.304 145.753C207.56 148.811 205.18 151.216 202.118 153.008L205.645 159.052ZM215.356 149.256C217.768 145.122 218.978 140.615 218.978 135.8H211.989C211.989 139.385 211.102 142.672 209.321 145.724L215.356 149.256ZM218.978 135.8C218.978 130.985 217.768 126.478 215.356 122.344L209.321 125.876C211.102 128.928 211.989 132.215 211.989 135.8H218.978ZM215.372 122.373C213.013 118.238 209.744 114.964 205.615 112.601L202.147 118.679C205.193 120.422 207.563 122.796 209.304 125.847L215.372 122.373ZM205.645 112.618C201.517 110.202 197.016 108.99 192.209 108.99V115.99C195.789 115.99 199.07 116.878 202.118 118.662L205.645 112.618ZM192.209 108.99C187.401 108.99 182.901 110.202 178.773 112.618L182.3 118.662C185.347 116.878 188.629 115.99 192.209 115.99V108.99ZM178.802 112.601C174.68 114.96 171.396 118.224 168.992 122.344L175.027 125.876C176.816 122.809 179.218 120.426 182.271 118.679L178.802 112.601ZM168.975 122.373C166.618 126.504 165.439 131 165.439 135.8H172.429C172.429 132.2 173.3 128.903 175.043 125.847L168.975 122.373ZM165.439 135.8C165.439 140.6 166.618 145.096 168.975 149.227L175.043 145.753C173.3 142.697 172.429 139.4 172.429 135.8H165.439ZM168.992 149.256C171.392 153.369 174.667 156.648 178.773 159.052L182.3 153.008C179.231 151.212 176.82 148.798 175.027 145.724L168.992 149.256Z" fill="#232323"/>
<path d="M305.926 115.99C311.378 110.53 317.971 107.8 325.707 107.8C333.442 107.8 340.035 110.53 345.487 115.99C350.938 121.45 353.664 128.053 353.664 135.8C353.664 143.547 350.938 150.15 345.487 155.61C340.035 161.07 333.442 163.8 325.707 163.8C317.971 163.8 311.378 161.07 305.926 155.61C300.475 150.15 297.749 143.547 297.749 135.8C297.749 128.053 300.475 121.45 305.926 115.99ZM314.034 156.03C317.622 158.083 321.513 159.11 325.707 159.11C329.9 159.11 333.791 158.083 337.379 156.03C340.966 153.93 343.786 151.083 345.836 147.49C347.933 143.897 348.981 140 348.981 135.8C348.981 131.6 347.933 127.703 345.836 124.11C343.786 120.517 340.966 117.693 337.379 115.64C333.791 113.54 329.9 112.49 325.707 112.49C321.513 112.49 317.622 113.54 314.034 115.64C310.447 117.693 307.604 120.517 305.507 124.11C303.457 127.703 302.432 131.6 302.432 135.8C302.432 140 303.457 143.897 305.507 147.49C307.604 151.083 310.447 153.93 314.034 156.03ZM328.153 133.35C328.852 134.003 329.201 134.82 329.201 135.8C329.201 136.78 328.852 137.62 328.153 138.32C327.501 138.973 326.685 139.3 325.707 139.3C324.728 139.3 323.889 138.973 323.19 138.32C322.538 137.62 322.212 136.78 322.212 135.8C322.212 134.82 322.538 134.003 323.19 133.35C323.889 132.65 324.728 132.3 325.707 132.3C326.685 132.3 327.501 132.65 328.153 133.35Z" fill="#232323"/>
<path d="M314.034 156.03L312.271 159.052L312.285 159.06L312.3 159.069L314.034 156.03ZM337.379 156.03L339.113 159.069L339.128 159.06L339.142 159.052L337.379 156.03ZM345.836 147.49L342.819 145.724L342.81 145.739L342.802 145.753L345.836 147.49ZM345.836 124.11L342.802 125.847L342.81 125.861L342.819 125.876L345.836 124.11ZM337.379 115.64L335.615 118.662L335.63 118.67L335.645 118.679L337.379 115.64ZM314.034 115.64L315.768 118.679L315.783 118.67L315.798 118.662L314.034 115.64ZM305.507 124.11L302.49 122.344L302.481 122.359L302.473 122.373L305.507 124.11ZM305.507 147.49L302.473 149.227L302.481 149.241L302.49 149.256L305.507 147.49ZM328.153 133.35L325.598 135.738L325.68 135.827L325.768 135.909L328.153 133.35ZM323.19 138.32L320.636 140.708L320.717 140.797L320.806 140.879L323.19 138.32ZM308.398 118.465C313.191 113.664 318.895 111.3 325.706 111.3V104.3C317.048 104.3 309.565 107.396 303.455 113.515L308.398 118.465ZM325.706 111.3C332.518 111.3 338.222 113.664 343.015 118.465L347.958 113.515C341.848 107.396 334.365 104.3 325.706 104.3V111.3ZM343.015 118.465C347.809 123.266 350.169 128.979 350.169 135.8H357.159C357.159 127.128 354.067 119.634 347.958 113.515L343.015 118.465ZM350.169 135.8C350.169 142.622 347.809 148.334 343.015 153.135L347.958 158.085C354.067 151.966 357.159 144.472 357.159 135.8H350.169ZM343.015 153.135C338.222 157.936 332.518 160.3 325.706 160.3V167.3C334.365 167.3 341.848 164.204 347.958 158.085L343.015 153.135ZM325.706 160.3C318.895 160.3 313.191 157.936 308.398 153.135L303.455 158.085C309.565 164.204 317.048 167.3 325.706 167.3V160.3ZM308.398 153.135C303.604 148.334 301.244 142.622 301.244 135.8H294.254C294.254 144.472 297.346 151.966 303.455 158.085L308.398 153.135ZM301.244 135.8C301.244 128.979 303.604 123.266 308.398 118.465L303.455 113.515C297.346 119.634 294.254 127.128 294.254 135.8H301.244ZM312.3 159.069C316.425 161.429 320.914 162.61 325.706 162.61V155.61C322.112 155.61 318.82 154.738 315.768 152.991L312.3 159.069ZM325.706 162.61C330.499 162.61 334.988 161.429 339.113 159.069L335.645 152.991C332.593 154.738 329.301 155.61 325.706 155.61V162.61ZM339.142 159.052C343.256 156.644 346.515 153.355 348.87 149.227L342.802 145.753C341.057 148.811 338.677 151.216 335.615 153.008L339.142 159.052ZM348.853 149.256C351.266 145.122 352.476 140.615 352.476 135.8H345.487C345.487 139.385 344.6 142.672 342.819 145.724L348.853 149.256ZM352.476 135.8C352.476 130.985 351.266 126.478 348.853 122.344L342.819 125.876C344.6 128.928 345.487 132.215 345.487 135.8H352.476ZM348.87 122.373C346.51 118.238 343.242 114.964 339.113 112.601L335.645 118.679C338.691 120.422 341.061 122.796 342.802 125.847L348.87 122.373ZM339.142 112.618C335.014 110.202 330.514 108.99 325.706 108.99V115.99C329.286 115.99 332.568 116.878 335.615 118.662L339.142 112.618ZM325.706 108.99C320.899 108.99 316.399 110.202 312.271 112.618L315.798 118.662C318.845 116.878 322.127 115.99 325.706 115.99V108.99ZM312.3 112.601C308.178 114.96 304.894 118.224 302.49 122.344L308.524 125.876C310.314 122.809 312.715 120.426 315.768 118.679L312.3 112.601ZM302.473 122.373C300.116 126.504 298.937 131 298.937 135.8H305.926C305.926 132.2 306.797 128.903 308.541 125.847L302.473 122.373ZM298.937 135.8C298.937 140.6 300.116 145.096 302.473 149.227L308.541 145.753C306.797 142.697 305.926 139.4 305.926 135.8H298.937ZM302.49 149.256C304.89 153.369 308.164 156.648 312.271 159.052L315.798 153.008C312.729 151.212 310.318 148.798 308.524 145.724L302.49 149.256ZM325.768 135.909C325.783 135.923 325.78 135.922 325.768 135.905C325.755 135.887 325.74 135.862 325.727 135.832C325.713 135.801 325.708 135.776 325.706 135.765C325.703 135.754 325.706 135.764 325.706 135.8H332.696C332.696 133.876 331.963 132.124 330.538 130.792L325.768 135.909ZM325.706 135.8C325.706 135.836 325.704 135.85 325.704 135.848C325.704 135.845 325.707 135.834 325.713 135.819C325.719 135.804 325.725 135.797 325.724 135.797C325.723 135.799 325.712 135.815 325.681 135.845L330.624 140.795C331.971 139.446 332.696 137.719 332.696 135.8H325.706ZM325.681 135.845C325.674 135.853 325.678 135.848 325.695 135.836C325.711 135.825 325.732 135.814 325.754 135.806C325.776 135.796 325.788 135.794 325.785 135.795C325.781 135.796 325.757 135.8 325.706 135.8V142.8C327.55 142.8 329.273 142.148 330.624 140.795L325.681 135.845ZM325.706 135.8C325.657 135.8 325.628 135.796 325.616 135.794C325.605 135.792 325.604 135.791 325.61 135.793C325.616 135.795 325.619 135.797 325.617 135.796C325.614 135.794 325.6 135.785 325.575 135.762L320.806 140.879C322.168 142.153 323.865 142.8 325.706 142.8V135.8ZM325.745 135.932C325.721 135.906 325.712 135.892 325.711 135.89C325.709 135.888 325.711 135.89 325.713 135.897C325.716 135.902 325.715 135.902 325.713 135.89C325.711 135.879 325.706 135.85 325.706 135.8H318.717C318.717 137.643 319.364 139.343 320.636 140.708L325.745 135.932ZM325.706 135.8C325.706 135.75 325.711 135.725 325.711 135.722C325.712 135.719 325.71 135.731 325.701 135.752C325.693 135.774 325.681 135.795 325.67 135.812C325.659 135.829 325.653 135.833 325.662 135.825L320.719 130.875C319.369 132.228 318.717 133.954 318.717 135.8H325.706ZM325.662 135.825C325.692 135.794 325.708 135.783 325.709 135.783C325.71 135.782 325.702 135.787 325.688 135.793C325.673 135.799 325.662 135.802 325.659 135.803C325.656 135.803 325.671 135.8 325.706 135.8V128.8C323.791 128.8 322.066 129.526 320.719 130.875L325.662 135.825ZM325.706 135.8C325.743 135.8 325.753 135.804 325.741 135.801C325.73 135.799 325.706 135.793 325.675 135.78C325.644 135.766 325.619 135.751 325.602 135.738C325.585 135.727 325.584 135.723 325.598 135.738L330.707 130.962C329.377 129.534 327.628 128.8 325.706 128.8V135.8Z" fill="#232323"/>
<path d="M305.926 32.69C311.378 27.23 317.971 24.5 325.707 24.5C333.442 24.5 340.035 27.23 345.487 32.69C350.938 38.15 353.664 44.7533 353.664 52.5C353.664 60.2467 350.938 66.85 345.487 72.31C340.035 77.77 333.442 80.5 325.707 80.5C317.971 80.5 311.378 77.77 305.926 72.31C300.475 66.85 297.749 60.2467 297.749 52.5C297.749 44.7533 300.475 38.15 305.926 32.69ZM314.034 72.73C317.622 74.7831 321.513 75.81 325.707 75.81C329.9 75.81 333.791 74.7831 337.379 72.73C340.966 70.63 343.786 67.7833 345.836 64.19C347.933 60.5967 348.981 56.7 348.981 52.5C348.981 48.3 347.933 44.4033 345.836 40.81C343.786 37.2167 340.966 34.3933 337.379 32.34C333.791 30.24 329.9 29.19 325.707 29.19C321.513 29.19 317.622 30.24 314.034 32.34C310.447 34.3933 307.604 37.2167 305.507 40.81C303.457 44.4033 302.432 48.3 302.432 52.5C302.432 56.7 303.457 60.5967 305.507 64.19C307.604 67.7833 310.447 70.63 314.034 72.73ZM328.153 50.05C328.852 50.7033 329.201 51.52 329.201 52.5C329.201 53.48 328.852 54.32 328.153 55.02C327.501 55.6733 326.685 56 325.707 56C324.728 56 323.889 55.6733 323.19 55.02C322.538 54.32 322.212 53.48 322.212 52.5C322.212 51.52 322.538 50.7033 323.19 50.05C323.889 49.35 324.728 49 325.707 49C326.685 49 327.501 49.35 328.153 50.05Z" fill="#232323"/>
<path d="M314.034 72.73L312.271 75.7519L312.285 75.7603L312.3 75.7687L314.034 72.73ZM337.379 72.73L339.113 75.7687L339.128 75.7603L339.142 75.7519L337.379 72.73ZM345.836 64.19L342.819 62.424L342.81 62.4387L342.802 62.4535L345.836 64.19ZM345.836 40.81L342.802 42.5465L342.81 42.5613L342.819 42.576L345.836 40.81ZM337.379 32.34L335.615 35.3618L335.63 35.3704L335.645 35.3788L337.379 32.34ZM314.034 32.34L315.768 35.3788L315.783 35.3704L315.798 35.3618L314.034 32.34ZM305.507 40.81L302.49 39.044L302.481 39.0587L302.473 39.0735L305.507 40.81ZM305.507 64.19L302.473 65.9265L302.481 65.9413L302.49 65.956L305.507 64.19ZM328.153 50.05L325.598 52.4381L325.68 52.5263L325.768 52.6087L328.153 50.05ZM323.19 55.02L320.636 57.4081L320.717 57.4963L320.806 57.5787L323.19 55.02ZM308.398 35.1649C313.191 30.3636 318.895 28 325.706 28V21C317.048 21 309.565 24.0964 303.455 30.2152L308.398 35.1649ZM325.706 28C332.518 28 338.222 30.3636 343.015 35.1649L347.958 30.2152C341.848 24.0964 334.365 21 325.706 21V28ZM343.015 35.1649C347.809 39.9661 350.169 45.6782 350.169 52.5H357.159C357.159 43.8285 354.067 36.3339 347.958 30.2152L343.015 35.1649ZM350.169 52.5C350.169 59.3218 347.809 65.0339 343.015 69.8352L347.958 74.7852C354.067 68.6661 357.159 61.1715 357.159 52.5H350.169ZM343.015 69.8352C338.222 74.6361 332.518 77 325.706 77V84C334.365 84 341.848 80.9039 347.958 74.7852L343.015 69.8352ZM325.706 77C318.895 77 313.191 74.6361 308.398 69.8352L303.455 74.7852C309.565 80.9039 317.048 84 325.706 84V77ZM308.398 69.8352C303.604 65.0339 301.244 59.3218 301.244 52.5H294.254C294.254 61.1715 297.346 68.6661 303.455 74.7852L308.398 69.8352ZM301.244 52.5C301.244 45.6782 303.604 39.9661 308.398 35.1649L303.455 30.2152C297.346 36.3339 294.254 43.8285 294.254 52.5H301.244ZM312.3 75.7687C316.425 78.1291 320.914 79.31 325.706 79.31V72.31C322.112 72.31 318.82 71.4378 315.768 69.6912L312.3 75.7687ZM325.706 79.31C330.499 79.31 334.988 78.1291 339.113 75.7687L335.645 69.6912C332.593 71.4378 329.301 72.31 325.706 72.31V79.31ZM339.142 75.7519C343.256 73.3439 346.515 70.0553 348.87 65.9265L342.802 62.4535C341.057 65.5111 338.677 67.9159 335.615 69.7082L339.142 75.7519ZM348.853 65.956C351.266 61.8217 352.476 57.3147 352.476 52.5H345.487C345.487 56.0853 344.6 59.3717 342.819 62.424L348.853 65.956ZM352.476 52.5C352.476 47.6853 351.266 43.1783 348.853 39.044L342.819 42.576C344.6 45.6283 345.487 48.9147 345.487 52.5H352.476ZM348.87 39.0735C346.51 34.9376 343.242 31.6646 339.113 29.3012L335.645 35.3788C338.691 37.1221 341.061 39.4958 342.802 42.5465L348.87 39.0735ZM339.142 29.3182C335.014 26.902 330.514 25.69 325.706 25.69V32.69C329.286 32.69 332.568 33.5779 335.615 35.3618L339.142 29.3182ZM325.706 25.69C320.899 25.69 316.399 26.902 312.271 29.3182L315.798 35.3618C318.845 33.5779 322.127 32.69 325.706 32.69V25.69ZM312.3 29.3012C308.178 31.6606 304.894 34.9243 302.49 39.044L308.524 42.576C310.314 39.5091 312.715 37.126 315.768 35.3788L312.3 29.3012ZM302.473 39.0735C300.116 43.2039 298.937 47.7004 298.937 52.5H305.926C305.926 48.8996 306.797 45.6028 308.541 42.5465L302.473 39.0735ZM298.937 52.5C298.937 57.2996 300.116 61.7961 302.473 65.9265L308.541 62.4535C306.797 59.3972 305.926 56.1004 305.926 52.5H298.937ZM302.49 65.956C304.89 70.0686 308.164 73.3481 312.271 75.7519L315.798 69.7082C312.729 67.9119 310.318 65.4977 308.524 62.424L302.49 65.956ZM325.768 52.6087C325.783 52.6225 325.78 52.6219 325.768 52.6049C325.755 52.5875 325.74 52.562 325.727 52.5312C325.713 52.5006 325.708 52.4765 325.706 52.4649C325.703 52.454 325.706 52.4639 325.706 52.5H332.696C332.696 50.5757 331.963 48.824 330.538 47.4913L325.768 52.6087ZM325.706 52.5C325.706 52.5358 325.704 52.5502 325.704 52.5478C325.704 52.5447 325.707 52.5336 325.713 52.5188C325.719 52.5041 325.725 52.4963 325.724 52.4971C325.723 52.4984 325.712 52.515 325.681 52.5451L330.624 57.4948C331.971 56.146 332.696 54.4188 332.696 52.5H325.706ZM325.681 52.5451C325.674 52.5529 325.678 52.5477 325.695 52.5365C325.711 52.5253 325.732 52.5141 325.754 52.5053C325.776 52.4967 325.788 52.4947 325.785 52.4952C325.781 52.4959 325.757 52.5 325.706 52.5V59.5C327.55 59.5 329.273 58.8475 330.624 57.4948L325.681 52.5451ZM325.706 52.5C325.657 52.5 325.628 52.4959 325.616 52.4938C325.605 52.4918 325.604 52.4908 325.61 52.493C325.616 52.4952 325.619 52.4972 325.617 52.4959C325.614 52.4944 325.6 52.4851 325.575 52.4613L320.806 57.5787C322.168 58.8525 323.865 59.5 325.706 59.5V52.5ZM325.745 52.6319C325.721 52.6064 325.712 52.5921 325.711 52.5897C325.709 52.5876 325.711 52.5907 325.713 52.5965C325.716 52.6021 325.715 52.6015 325.713 52.5904C325.711 52.5788 325.706 52.55 325.706 52.5H318.717C318.717 54.3434 319.364 56.0433 320.636 57.4081L325.745 52.6319ZM325.706 52.5C325.706 52.4497 325.711 52.4253 325.711 52.4217C325.712 52.4189 325.71 52.4309 325.701 52.4523C325.693 52.4742 325.681 52.4951 325.67 52.512C325.659 52.5287 325.653 52.5327 325.662 52.5248L320.719 47.5751C319.369 48.9278 318.717 50.6542 318.717 52.5H325.706ZM325.662 52.5248C325.692 52.4947 325.708 52.4833 325.709 52.4824C325.71 52.4819 325.702 52.4871 325.688 52.4933C325.673 52.4994 325.662 52.502 325.659 52.5027C325.656 52.5031 325.671 52.5 325.706 52.5V45.5C323.791 45.5 322.066 46.2262 320.719 47.5751L325.662 52.5248ZM325.706 52.5C325.743 52.5 325.753 52.5032 325.741 52.5011C325.73 52.4988 325.706 52.4927 325.675 52.4795C325.644 52.4663 325.619 52.4512 325.602 52.4387C325.585 52.4266 325.584 52.4233 325.598 52.4381L330.707 47.6619C329.377 46.234 327.628 45.5 325.706 45.5V52.5Z" fill="#232323"/>
<path d="M389.799 115.99C395.251 110.53 401.844 107.8 409.579 107.8C417.315 107.8 423.908 110.53 429.359 115.99C434.811 121.45 437.537 128.053 437.537 135.8C437.537 143.547 434.811 150.15 429.359 155.61C423.908 161.07 417.315 163.8 409.579 163.8C401.844 163.8 395.251 161.07 389.799 155.61C384.348 150.15 381.622 143.547 381.622 135.8C381.622 128.053 384.348 121.45 389.799 115.99ZM397.907 156.03C401.495 158.083 405.386 159.11 409.579 159.11C413.773 159.11 417.664 158.083 421.252 156.03C424.839 153.93 427.659 151.083 429.709 147.49C431.806 143.897 432.854 140 432.854 135.8C432.854 131.6 431.806 127.703 429.709 124.11C427.659 120.517 424.839 117.693 421.252 115.64C417.664 113.54 413.773 112.49 409.579 112.49C405.386 112.49 401.495 113.54 397.907 115.64C394.319 117.693 391.477 120.517 389.38 124.11C387.33 127.703 386.305 131.6 386.305 135.8C386.305 140 387.33 143.897 389.38 147.49C391.477 151.083 394.319 153.93 397.907 156.03ZM412.026 133.35C412.725 134.003 413.074 134.82 413.074 135.8C413.074 136.78 412.725 137.62 412.026 138.32C411.374 138.973 410.558 139.3 409.579 139.3C408.601 139.3 407.762 138.973 407.063 138.32C406.411 137.62 406.085 136.78 406.085 135.8C406.085 134.82 406.411 134.003 407.063 133.35C407.762 132.65 408.601 132.3 409.579 132.3C410.558 132.3 411.374 132.65 412.026 133.35Z" fill="#232323"/>
<path d="M397.907 156.03L396.144 159.052L396.158 159.06L396.173 159.069L397.907 156.03ZM421.252 156.03L422.986 159.069L423.001 159.06L423.015 159.052L421.252 156.03ZM429.709 147.49L426.692 145.724L426.683 145.739L426.675 145.753L429.709 147.49ZM429.709 124.11L426.675 125.847L426.683 125.861L426.692 125.876L429.709 124.11ZM421.252 115.64L419.488 118.662L419.503 118.67L419.518 118.679L421.252 115.64ZM397.907 115.64L399.641 118.679L399.656 118.67L399.671 118.662L397.907 115.64ZM389.38 124.11L386.363 122.344L386.354 122.359L386.346 122.373L389.38 124.11ZM389.38 147.49L386.346 149.227L386.354 149.241L386.363 149.256L389.38 147.49ZM412.026 133.35L409.471 135.738L409.553 135.827L409.641 135.909L412.026 133.35ZM407.063 138.32L404.509 140.708L404.59 140.797L404.678 140.879L407.063 138.32ZM392.271 118.465C397.064 113.664 402.768 111.3 409.579 111.3V104.3C400.921 104.3 393.438 107.396 387.328 113.515L392.271 118.465ZM409.579 111.3C416.391 111.3 422.095 113.664 426.888 118.465L431.831 113.515C425.721 107.396 418.238 104.3 409.579 104.3V111.3ZM426.888 118.465C431.682 123.266 434.042 128.979 434.042 135.8H441.032C441.032 127.128 437.94 119.634 431.831 113.515L426.888 118.465ZM434.042 135.8C434.042 142.622 431.682 148.334 426.888 153.135L431.831 158.085C437.94 151.966 441.032 144.472 441.032 135.8H434.042ZM426.888 153.135C422.095 157.936 416.391 160.3 409.579 160.3V167.3C418.238 167.3 425.721 164.204 431.831 158.085L426.888 153.135ZM409.579 160.3C402.768 160.3 397.064 157.936 392.271 153.135L387.328 158.085C393.438 164.204 400.921 167.3 409.579 167.3V160.3ZM392.271 153.135C387.477 148.334 385.116 142.622 385.116 135.8H378.127C378.127 144.472 381.218 151.966 387.328 158.085L392.271 153.135ZM385.116 135.8C385.116 128.979 387.477 123.266 392.271 118.465L387.328 113.515C381.218 119.634 378.127 127.128 378.127 135.8H385.116ZM396.173 159.069C400.297 161.429 404.787 162.61 409.579 162.61V155.61C405.985 155.61 402.693 154.738 399.641 152.991L396.173 159.069ZM409.579 162.61C414.372 162.61 418.861 161.429 422.986 159.069L419.518 152.991C416.466 154.738 413.174 155.61 409.579 155.61V162.61ZM423.015 159.052C427.128 156.644 430.388 153.355 432.743 149.227L426.675 145.753C424.93 148.811 422.55 151.216 419.488 153.008L423.015 159.052ZM432.726 149.256C435.139 145.122 436.349 140.615 436.349 135.8H429.359C429.359 139.385 428.472 142.672 426.692 145.724L432.726 149.256ZM436.349 135.8C436.349 130.985 435.139 126.478 432.726 122.344L426.692 125.876C428.472 128.928 429.359 132.215 429.359 135.8H436.349ZM432.743 122.373C430.383 118.238 427.115 114.964 422.986 112.601L419.518 118.679C422.564 120.422 424.934 122.796 426.675 125.847L432.743 122.373ZM423.015 112.618C418.887 110.202 414.387 108.99 409.579 108.99V115.99C413.159 115.99 416.441 116.878 419.488 118.662L423.015 112.618ZM409.579 108.99C404.772 108.99 400.272 110.202 396.144 112.618L399.671 118.662C402.718 116.878 405.999 115.99 409.579 115.99V108.99ZM396.173 112.601C392.051 114.96 388.767 118.224 386.363 122.344L392.397 125.876C394.187 122.809 396.588 120.426 399.641 118.679L396.173 112.601ZM386.346 122.373C383.989 126.504 382.81 131 382.81 135.8H389.799C389.799 132.2 390.67 128.903 392.414 125.847L386.346 122.373ZM382.81 135.8C382.81 140.6 383.989 145.096 386.346 149.227L392.414 145.753C390.67 142.697 389.799 139.4 389.799 135.8H382.81ZM386.363 149.256C388.763 153.369 392.037 156.648 396.144 159.052L399.671 153.008C396.601 151.212 394.191 148.798 392.397 145.724L386.363 149.256ZM409.641 135.909C409.656 135.923 409.653 135.922 409.641 135.905C409.628 135.887 409.613 135.862 409.6 135.832C409.586 135.801 409.581 135.776 409.579 135.765C409.576 135.754 409.579 135.764 409.579 135.8H416.569C416.569 133.876 415.836 132.124 414.41 130.792L409.641 135.909ZM409.579 135.8C409.579 135.836 409.577 135.85 409.577 135.848C409.577 135.845 409.58 135.834 409.586 135.819C409.592 135.804 409.598 135.797 409.597 135.797C409.596 135.799 409.585 135.815 409.554 135.845L414.497 140.795C415.844 139.446 416.569 137.719 416.569 135.8H409.579ZM409.554 135.845C409.547 135.853 409.551 135.848 409.568 135.836C409.584 135.825 409.605 135.814 409.627 135.806C409.649 135.796 409.66 135.794 409.658 135.795C409.654 135.796 409.63 135.8 409.579 135.8V142.8C411.423 142.8 413.146 142.148 414.497 140.795L409.554 135.845ZM409.579 135.8C409.53 135.8 409.5 135.796 409.489 135.794C409.478 135.792 409.477 135.791 409.483 135.793C409.489 135.795 409.492 135.797 409.49 135.796C409.487 135.794 409.473 135.785 409.448 135.762L404.678 140.879C406.041 142.153 407.738 142.8 409.579 142.8V135.8ZM409.618 135.932C409.594 135.906 409.585 135.892 409.584 135.89C409.582 135.888 409.584 135.89 409.586 135.897C409.589 135.902 409.588 135.902 409.586 135.89C409.584 135.879 409.579 135.85 409.579 135.8H402.59C402.59 137.643 403.237 139.343 404.509 140.708L409.618 135.932ZM409.579 135.8C409.579 135.75 409.584 135.725 409.584 135.722C409.585 135.719 409.583 135.731 409.574 135.752C409.565 135.774 409.554 135.795 409.543 135.812C409.532 135.829 409.526 135.833 409.535 135.825L404.592 130.875C403.241 132.228 402.59 133.954 402.59 135.8H409.579ZM409.535 135.825C409.565 135.794 409.581 135.783 409.582 135.783C409.583 135.782 409.575 135.787 409.561 135.793C409.546 135.799 409.535 135.802 409.532 135.803C409.529 135.803 409.544 135.8 409.579 135.8V128.8C407.664 128.8 405.939 129.526 404.592 130.875L409.535 135.825ZM409.579 135.8C409.616 135.8 409.626 135.804 409.614 135.801C409.603 135.799 409.579 135.793 409.548 135.78C409.517 135.766 409.492 135.751 409.475 135.738C409.458 135.727 409.457 135.723 409.471 135.738L414.58 130.962C413.25 129.534 411.501 128.8 409.579 128.8V135.8Z" fill="#232323"/>
<path d="M389.799 199.29C395.251 193.83 401.844 191.1 409.579 191.1C417.315 191.1 423.908 193.83 429.359 199.29C434.811 204.75 437.537 211.353 437.537 219.1C437.537 226.847 434.811 233.45 429.359 238.91C423.908 244.37 417.315 247.1 409.579 247.1C401.844 247.1 395.251 244.37 389.799 238.91C384.348 233.45 381.622 226.847 381.622 219.1C381.622 211.353 384.348 204.75 389.799 199.29ZM397.907 239.33C401.495 241.383 405.386 242.41 409.579 242.41C413.773 242.41 417.664 241.383 421.252 239.33C424.839 237.23 427.659 234.383 429.709 230.79C431.806 227.197 432.854 223.3 432.854 219.1C432.854 214.9 431.806 211.003 429.709 207.41C427.659 203.817 424.839 200.993 421.252 198.94C417.664 196.84 413.773 195.79 409.579 195.79C405.386 195.79 401.495 196.84 397.907 198.94C394.319 200.993 391.477 203.817 389.38 207.41C387.33 211.003 386.305 214.9 386.305 219.1C386.305 223.3 387.33 227.197 389.38 230.79C391.477 234.383 394.319 237.23 397.907 239.33ZM412.026 216.65C412.725 217.303 413.074 218.12 413.074 219.1C413.074 220.08 412.725 220.92 412.026 221.62C411.374 222.273 410.558 222.6 409.579 222.6C408.601 222.6 407.762 222.273 407.063 221.62C406.411 220.92 406.085 220.08 406.085 219.1C406.085 218.12 406.411 217.303 407.063 216.65C407.762 215.95 408.601 215.6 409.579 215.6C410.558 215.6 411.374 215.95 412.026 216.65Z" fill="#232323"/>
<path d="M397.907 239.33L396.144 242.352L396.158 242.36L396.173 242.369L397.907 239.33ZM421.252 239.33L422.986 242.369L423.001 242.36L423.015 242.352L421.252 239.33ZM429.709 230.79L426.692 229.024L426.683 229.039L426.675 229.053L429.709 230.79ZM429.709 207.41L426.675 209.147L426.683 209.161L426.692 209.176L429.709 207.41ZM421.252 198.94L419.488 201.962L419.503 201.97L419.518 201.979L421.252 198.94ZM397.907 198.94L399.641 201.979L399.656 201.97L399.671 201.962L397.907 198.94ZM389.38 207.41L386.363 205.644L386.354 205.659L386.346 205.673L389.38 207.41ZM389.38 230.79L386.346 232.527L386.354 232.541L386.363 232.556L389.38 230.79ZM412.026 216.65L409.471 219.038L409.553 219.127L409.641 219.209L412.026 216.65ZM407.063 221.62L404.509 224.008L404.59 224.097L404.678 224.179L407.063 221.62ZM392.271 201.765C397.064 196.964 402.768 194.6 409.579 194.6V187.6C400.921 187.6 393.438 190.696 387.328 196.815L392.271 201.765ZM409.579 194.6C416.391 194.6 422.095 196.964 426.888 201.765L431.831 196.815C425.721 190.696 418.238 187.6 409.579 187.6V194.6ZM426.888 201.765C431.682 206.566 434.042 212.279 434.042 219.1H441.032C441.032 210.428 437.94 202.934 431.831 196.815L426.888 201.765ZM434.042 219.1C434.042 225.922 431.682 231.634 426.888 236.435L431.831 241.385C437.94 235.266 441.032 227.772 441.032 219.1H434.042ZM426.888 236.435C422.095 241.236 416.391 243.6 409.579 243.6V250.6C418.238 250.6 425.721 247.504 431.831 241.385L426.888 236.435ZM409.579 243.6C402.768 243.6 397.064 241.236 392.271 236.435L387.328 241.385C393.438 247.504 400.921 250.6 409.579 250.6V243.6ZM392.271 236.435C387.477 231.634 385.116 225.922 385.116 219.1H378.127C378.127 227.772 381.218 235.266 387.328 241.385L392.271 236.435ZM385.116 219.1C385.116 212.279 387.477 206.566 392.271 201.765L387.328 196.815C381.218 202.934 378.127 210.428 378.127 219.1H385.116ZM396.173 242.369C400.297 244.729 404.787 245.91 409.579 245.91V238.91C405.985 238.91 402.693 238.038 399.641 236.291L396.173 242.369ZM409.579 245.91C414.372 245.91 418.861 244.729 422.986 242.369L419.518 236.291C416.466 238.038 413.174 238.91 409.579 238.91V245.91ZM423.015 242.352C427.128 239.944 430.388 236.655 432.743 232.527L426.675 229.053C424.93 232.111 422.55 234.516 419.488 236.308L423.015 242.352ZM432.726 232.556C435.139 228.422 436.349 223.915 436.349 219.1H429.359C429.359 222.685 428.472 225.972 426.692 229.024L432.726 232.556ZM436.349 219.1C436.349 214.285 435.139 209.778 432.726 205.644L426.692 209.176C428.472 212.228 429.359 215.515 429.359 219.1H436.349ZM432.743 205.673C430.383 201.538 427.115 198.265 422.986 195.901L419.518 201.979C422.564 203.722 424.934 206.096 426.675 209.147L432.743 205.673ZM423.015 195.918C418.887 193.502 414.387 192.29 409.579 192.29V199.29C413.159 199.29 416.441 200.178 419.488 201.962L423.015 195.918ZM409.579 192.29C404.772 192.29 400.272 193.502 396.144 195.918L399.671 201.962C402.718 200.178 405.999 199.29 409.579 199.29V192.29ZM396.173 195.901C392.051 198.26 388.767 201.524 386.363 205.644L392.397 209.176C394.187 206.109 396.588 203.726 399.641 201.979L396.173 195.901ZM386.346 205.673C383.989 209.804 382.81 214.3 382.81 219.1H389.799C389.799 215.5 390.67 212.203 392.414 209.147L386.346 205.673ZM382.81 219.1C382.81 223.9 383.989 228.396 386.346 232.527L392.414 229.053C390.67 225.997 389.799 222.7 389.799 219.1H382.81ZM386.363 232.556C388.763 236.669 392.037 239.948 396.144 242.352L399.671 236.308C396.601 234.512 394.191 232.098 392.397 229.024L386.363 232.556ZM409.641 219.209C409.656 219.223 409.653 219.222 409.641 219.205C409.628 219.188 409.613 219.162 409.6 219.132C409.586 219.101 409.581 219.076 409.579 219.065C409.576 219.054 409.579 219.064 409.579 219.1H416.569C416.569 217.176 415.836 215.424 414.41 214.092L409.641 219.209ZM409.579 219.1C409.579 219.136 409.577 219.15 409.577 219.148C409.577 219.145 409.58 219.134 409.586 219.119C409.592 219.104 409.598 219.097 409.597 219.097C409.596 219.099 409.585 219.115 409.554 219.145L414.497 224.095C415.844 222.746 416.569 221.019 416.569 219.1H409.579ZM409.554 219.145C409.547 219.153 409.551 219.148 409.568 219.136C409.584 219.125 409.605 219.114 409.627 219.106C409.649 219.097 409.66 219.094 409.658 219.095C409.654 219.096 409.63 219.1 409.579 219.1V226.1C411.423 226.1 413.146 225.448 414.497 224.095L409.554 219.145ZM409.579 219.1C409.53 219.1 409.5 219.096 409.489 219.094C409.478 219.092 409.477 219.091 409.483 219.093C409.489 219.095 409.492 219.097 409.49 219.096C409.487 219.094 409.473 219.085 409.448 219.062L404.678 224.179C406.041 225.453 407.738 226.1 409.579 226.1V219.1ZM409.618 219.232C409.594 219.206 409.585 219.192 409.584 219.19C409.582 219.188 409.584 219.19 409.586 219.197C409.589 219.202 409.588 219.202 409.586 219.19C409.584 219.179 409.579 219.15 409.579 219.1H402.59C402.59 220.943 403.237 222.643 404.509 224.008L409.618 219.232ZM409.579 219.1C409.579 219.05 409.584 219.025 409.584 219.022C409.585 219.019 409.583 219.031 409.574 219.052C409.565 219.074 409.554 219.095 409.543 219.112C409.532 219.129 409.526 219.133 409.535 219.125L404.592 214.175C403.241 215.528 402.59 217.254 402.59 219.1H409.579ZM409.535 219.125C409.565 219.094 409.581 219.083 409.582 219.083C409.583 219.082 409.575 219.087 409.561 219.093C409.546 219.099 409.535 219.102 409.532 219.103C409.529 219.103 409.544 219.1 409.579 219.1V212.1C407.664 212.1 405.939 212.826 404.592 214.175L409.535 219.125ZM409.579 219.1C409.616 219.1 409.626 219.104 409.614 219.101C409.603 219.099 409.579 219.093 409.548 219.08C409.517 219.066 409.492 219.051 409.475 219.038C409.458 219.026 409.457 219.023 409.471 219.038L414.58 214.262C413.25 212.834 411.501 212.1 409.579 212.1V219.1Z" fill="#232323"/>
</svg>
