<svg width="179" height="262" viewBox="0 0 179 262" fill="none" xmlns="http://www.w3.org/2000/svg">
<path d="M179 16C179 7.16344 171.837 0 163 0H16C7.16344 0 0 7.16345 0 16V246C0 254.837 7.16344 262 16 262H163C171.837 262 179 254.837 179 246V16Z" fill="#232323"/>
<path d="M124.746 186V160H138.746V186H124.746Z" fill="white"/>
<path d="M39.7458 102V76H53.7458V102H39.7458Z" fill="white"/>
<path d="M75.7458 123H103.746V137H75.7458V123Z" fill="white"/>
<path d="M27.6723 110.99C33.1241 105.53 39.7172 102.8 47.4524 102.8C55.1875 102.8 61.7806 105.53 67.2324 110.99C72.6841 116.45 75.41 123.053 75.41 130.8C75.41 138.547 72.6841 145.15 67.2324 150.61C61.7806 156.07 55.1875 158.8 47.4524 158.8C39.7172 158.8 33.1241 156.07 27.6723 150.61C22.2206 145.15 19.4947 138.547 19.4947 130.8C19.4947 123.053 22.2206 116.45 27.6723 110.99ZM35.78 151.03C39.3677 153.083 43.2587 154.11 47.4524 154.11C51.646 154.11 55.537 153.083 59.1247 151.03C62.7123 148.93 65.5319 146.083 67.5819 142.49C69.6787 138.897 70.7271 135 70.7271 130.8C70.7271 126.6 69.6787 122.703 67.5819 119.11C65.5319 115.517 62.7123 112.693 59.1247 110.64C55.537 108.54 51.646 107.49 47.4524 107.49C43.2587 107.49 39.3677 108.54 35.78 110.64C32.1924 112.693 29.3498 115.517 27.253 119.11C25.203 122.703 24.1776 126.6 24.1776 130.8C24.1776 135 25.203 138.897 27.253 142.49C29.3498 146.083 32.1924 148.93 35.78 151.03ZM49.8987 128.35C50.5976 129.003 50.9471 129.82 50.9471 130.8C50.9471 131.78 50.5976 132.62 49.8987 133.32C49.2465 133.973 48.4309 134.3 47.4524 134.3C46.4738 134.3 45.6351 133.973 44.9362 133.32C44.2841 132.62 43.9577 131.78 43.9577 130.8C43.9577 129.82 44.2841 129.003 44.9362 128.35C45.6351 127.65 46.4738 127.3 47.4524 127.3C48.4309 127.3 49.2465 127.65 49.8987 128.35Z" fill="white"/>
<path d="M35.78 151.03L34.0166 154.052L34.0313 154.06L34.046 154.069L35.78 151.03ZM59.1247 151.03L60.8587 154.069L60.8734 154.06L60.8881 154.052L59.1247 151.03ZM67.5818 142.49L64.5645 140.724L64.5561 140.739L64.5478 140.753L67.5818 142.49ZM67.5818 119.11L64.5478 120.847L64.5561 120.861L64.5645 120.876L67.5818 119.11ZM59.1247 110.64L57.3612 113.662L57.3759 113.67L57.3906 113.679L59.1247 110.64ZM35.78 110.64L37.5141 113.679L37.5288 113.67L37.5435 113.662L35.78 110.64ZM27.253 119.11L24.2356 117.344L24.2272 117.359L24.2188 117.373L27.253 119.11ZM27.253 142.49L24.2188 144.227L24.2272 144.241L24.2356 144.256L27.253 142.49ZM49.8986 128.35L47.344 130.738L47.4258 130.827L47.5139 130.909L49.8986 128.35ZM44.9362 133.32L42.3815 135.708L42.4633 135.797L42.5514 135.879L44.9362 133.32ZM30.1438 113.465C34.9371 108.664 40.6412 106.3 47.4523 106.3V99.3C38.7939 99.3 31.311 102.396 25.2009 108.515L30.1438 113.465ZM47.4523 106.3C54.2635 106.3 59.9676 108.664 64.7609 113.465L69.7038 108.515C63.5937 102.396 56.1108 99.3 47.4523 99.3V106.3ZM64.7609 113.465C69.555 118.266 71.9153 123.979 71.9153 130.8H78.9047C78.9047 122.128 75.8133 114.634 69.7038 108.515L64.7609 113.465ZM71.9153 130.8C71.9153 137.622 69.555 143.334 64.7609 148.135L69.7038 153.085C75.8133 146.966 78.9047 139.472 78.9047 130.8H71.9153ZM64.7609 148.135C59.9676 152.936 54.2635 155.3 47.4523 155.3V162.3C56.1108 162.3 63.5937 159.204 69.7038 153.085L64.7609 148.135ZM47.4523 155.3C40.6412 155.3 34.9371 152.936 30.1438 148.135L25.2009 153.085C31.311 159.204 38.7939 162.3 47.4523 162.3V155.3ZM30.1438 148.135C25.3497 143.334 22.9894 137.622 22.9894 130.8H16C16 139.472 19.0914 146.966 25.2009 153.085L30.1438 148.135ZM22.9894 130.8C22.9894 123.979 25.3497 118.266 30.1438 113.465L25.2009 108.515C19.0914 114.634 16 122.128 16 130.8H22.9894ZM34.046 154.069C38.1704 156.429 42.6597 157.61 47.4523 157.61V150.61C43.8577 150.61 40.5657 149.738 37.5141 147.991L34.046 154.069ZM47.4523 157.61C52.245 157.61 56.7343 156.429 60.8587 154.069L57.3906 147.991C54.339 149.738 51.047 150.61 47.4523 150.61V157.61ZM60.8881 154.052C65.0013 151.644 68.2605 148.355 70.6159 144.227L64.5478 140.753C62.8032 143.811 60.4233 146.216 57.3612 148.008L60.8881 154.052ZM70.5992 144.256C73.0119 140.122 74.2218 135.615 74.2218 130.8H67.2324C67.2324 134.385 66.3454 137.672 64.5645 140.724L70.5992 144.256ZM74.2218 130.8C74.2218 125.985 73.0119 121.478 70.5992 117.344L64.5645 120.876C66.3454 123.928 67.2324 127.215 67.2324 130.8H74.2218ZM70.6159 117.373C68.2563 113.238 64.9881 109.964 60.8587 107.601L57.3906 113.679C60.4366 115.422 62.8067 117.796 64.5478 120.847L70.6159 117.373ZM60.8881 107.618C56.7601 105.202 52.2597 103.99 47.4523 103.99V110.99C51.0323 110.99 54.3138 111.878 57.3612 113.662L60.8881 107.618ZM47.4523 103.99C42.645 103.99 38.1446 105.202 34.0166 107.618L37.5435 113.662C40.5908 111.878 43.8724 110.99 47.4523 110.99V103.99ZM34.046 107.601C29.9236 109.96 26.64 113.224 24.2356 117.344L30.2703 120.876C32.0596 117.809 34.4611 115.426 37.5141 113.679L34.046 107.601ZM24.2188 117.373C21.862 121.504 20.6829 126 20.6829 130.8H27.6723C27.6723 127.2 28.5432 123.903 30.2871 120.847L24.2188 117.373ZM20.6829 130.8C20.6829 135.6 21.862 140.096 24.2188 144.227L30.2871 140.753C28.5432 137.697 27.6723 134.4 27.6723 130.8H20.6829ZM24.2356 144.256C26.6358 148.369 29.9103 151.648 34.0166 154.052L37.5435 148.008C34.4744 146.212 32.0638 143.798 30.2703 140.724L24.2356 144.256ZM47.5139 130.909C47.5292 130.923 47.5257 130.922 47.5139 130.905C47.5013 130.887 47.4859 130.862 47.4726 130.832C47.4593 130.801 47.4537 130.776 47.4516 130.765C47.4488 130.754 47.4523 130.764 47.4523 130.8H54.4418C54.4418 128.876 53.7086 127.124 52.2834 125.792L47.5139 130.909ZM47.4523 130.8C47.4523 130.836 47.4496 130.85 47.4496 130.848C47.4502 130.845 47.4531 130.834 47.4593 130.819C47.4649 130.804 47.4705 130.797 47.4698 130.797C47.4691 130.799 47.4579 130.815 47.4272 130.845L52.3701 135.795C53.717 134.446 54.4418 132.719 54.4418 130.8H47.4523ZM47.4272 130.845C47.4195 130.853 47.4237 130.848 47.4405 130.836C47.4572 130.825 47.4782 130.814 47.4999 130.806C47.5215 130.796 47.5334 130.794 47.5306 130.795C47.5271 130.796 47.5027 130.8 47.4523 130.8V137.8C49.2955 137.8 51.019 137.148 52.3701 135.795L47.4272 130.845ZM47.4523 130.8C47.4027 130.8 47.3734 130.796 47.3622 130.794C47.351 130.792 47.3503 130.791 47.3559 130.793C47.3622 130.795 47.365 130.797 47.3629 130.796C47.3601 130.794 47.3461 130.785 47.321 130.762L42.5514 135.879C43.9143 137.153 45.6113 137.8 47.4523 137.8V130.8ZM47.4908 130.932C47.467 130.906 47.4579 130.892 47.4565 130.89C47.4551 130.888 47.4572 130.89 47.4593 130.897C47.4614 130.902 47.4607 130.902 47.4586 130.89C47.4565 130.879 47.4523 130.85 47.4523 130.8H40.4629C40.4629 132.643 41.1095 134.343 42.3815 135.708L47.4908 130.932ZM47.4523 130.8C47.4523 130.75 47.4565 130.725 47.4572 130.722C47.4579 130.719 47.4558 130.731 47.4468 130.752C47.4384 130.774 47.4272 130.795 47.416 130.812C47.4048 130.829 47.3992 130.833 47.4076 130.825L42.4647 125.875C41.1144 127.228 40.4629 128.954 40.4629 130.8H47.4523ZM47.4076 130.825C47.4377 130.794 47.4537 130.783 47.4551 130.783C47.4558 130.782 47.4481 130.787 47.4335 130.793C47.4188 130.799 47.4076 130.802 47.4048 130.803C47.402 130.803 47.4167 130.8 47.4523 130.8V123.8C45.5365 123.8 43.8116 124.526 42.4647 125.875L47.4076 130.825ZM47.4523 130.8C47.4887 130.8 47.4985 130.804 47.4873 130.801C47.4761 130.799 47.4516 130.793 47.4209 130.78C47.3901 130.766 47.365 130.751 47.3475 130.738C47.3307 130.727 47.33 130.723 47.344 130.738L52.4533 125.962C51.1225 124.534 49.3737 123.8 47.4523 123.8V130.8Z" fill="white"/>
<path d="M27.6723 27.69C33.1241 22.23 39.7172 19.5 47.4524 19.5C55.1875 19.5 61.7806 22.23 67.2324 27.69C72.6841 33.15 75.41 39.7533 75.41 47.5C75.41 55.2467 72.6841 61.85 67.2324 67.31C61.7806 72.77 55.1875 75.5 47.4524 75.5C39.7172 75.5 33.1241 72.77 27.6723 67.31C22.2206 61.85 19.4947 55.2467 19.4947 47.5C19.4947 39.7533 22.2206 33.15 27.6723 27.69ZM35.78 67.73C39.3677 69.7831 43.2587 70.81 47.4524 70.81C51.646 70.81 55.537 69.7831 59.1247 67.73C62.7123 65.63 65.5319 62.7833 67.5819 59.19C69.6787 55.5967 70.7271 51.7 70.7271 47.5C70.7271 43.3 69.6787 39.4033 67.5819 35.81C65.5319 32.2167 62.7123 29.3933 59.1247 27.34C55.537 25.24 51.646 24.19 47.4524 24.19C43.2587 24.19 39.3677 25.24 35.78 27.34C32.1924 29.3933 29.3498 32.2167 27.253 35.81C25.203 39.4033 24.1776 43.3 24.1776 47.5C24.1776 51.7 25.203 55.5967 27.253 59.19C29.3498 62.7833 32.1924 65.63 35.78 67.73ZM49.8987 45.05C50.5976 45.7033 50.9471 46.52 50.9471 47.5C50.9471 48.48 50.5976 49.32 49.8987 50.02C49.2465 50.6733 48.4309 51 47.4524 51C46.4738 51 45.6351 50.6733 44.9362 50.02C44.2841 49.32 43.9577 48.48 43.9577 47.5C43.9577 46.52 44.2841 45.7033 44.9362 45.05C45.6351 44.35 46.4738 44 47.4524 44C48.4309 44 49.2465 44.35 49.8987 45.05Z" fill="white"/>
<path d="M35.78 67.73L34.0166 70.7519L34.0313 70.7603L34.046 70.7687L35.78 67.73ZM59.1247 67.73L60.8587 70.7687L60.8734 70.7603L60.8881 70.7519L59.1247 67.73ZM67.5818 59.19L64.5645 57.424L64.5561 57.4387L64.5478 57.4535L67.5818 59.19ZM67.5818 35.81L64.5478 37.5465L64.5561 37.5613L64.5645 37.576L67.5818 35.81ZM59.1247 27.34L57.3612 30.3618L57.3759 30.3704L57.3906 30.3788L59.1247 27.34ZM35.78 27.34L37.5141 30.3788L37.5288 30.3704L37.5435 30.3618L35.78 27.34ZM27.253 35.81L24.2356 34.044L24.2272 34.0587L24.2188 34.0735L27.253 35.81ZM27.253 59.19L24.2188 60.9265L24.2272 60.9413L24.2356 60.956L27.253 59.19ZM49.8986 45.05L47.344 47.4381L47.4258 47.5263L47.5139 47.6087L49.8986 45.05ZM44.9362 50.02L42.3815 52.4081L42.4633 52.4963L42.5514 52.5787L44.9362 50.02ZM30.1438 30.1649C34.9371 25.3636 40.6412 23 47.4523 23V16C38.7939 16 31.311 19.0964 25.2009 25.2152L30.1438 30.1649ZM47.4523 23C54.2635 23 59.9676 25.3636 64.7609 30.1649L69.7038 25.2152C63.5937 19.0964 56.1108 16 47.4523 16V23ZM64.7609 30.1649C69.555 34.9661 71.9153 40.6782 71.9153 47.5H78.9047C78.9047 38.8285 75.8133 31.3339 69.7038 25.2152L64.7609 30.1649ZM71.9153 47.5C71.9153 54.3218 69.555 60.0339 64.7609 64.8352L69.7038 69.7852C75.8133 63.6661 78.9047 56.1715 78.9047 47.5H71.9153ZM64.7609 64.8352C59.9676 69.6361 54.2635 72 47.4523 72V79C56.1108 79 63.5937 75.9039 69.7038 69.7852L64.7609 64.8352ZM47.4523 72C40.6412 72 34.9371 69.6361 30.1438 64.8352L25.2009 69.7852C31.311 75.9039 38.7939 79 47.4523 79V72ZM30.1438 64.8352C25.3497 60.0339 22.9894 54.3218 22.9894 47.5H16C16 56.1715 19.0914 63.6661 25.2009 69.7852L30.1438 64.8352ZM22.9894 47.5C22.9894 40.6782 25.3497 34.9661 30.1438 30.1649L25.2009 25.2152C19.0914 31.3339 16 38.8285 16 47.5H22.9894ZM34.046 70.7687C38.1704 73.1291 42.6597 74.31 47.4523 74.31V67.31C43.8577 67.31 40.5657 66.4378 37.5141 64.6912L34.046 70.7687ZM47.4523 74.31C52.245 74.31 56.7343 73.1291 60.8587 70.7687L57.3906 64.6912C54.339 66.4378 51.047 67.31 47.4523 67.31V74.31ZM60.8881 70.7519C65.0013 68.3439 68.2605 65.0553 70.6159 60.9265L64.5478 57.4535C62.8032 60.5111 60.4233 62.9159 57.3612 64.7082L60.8881 70.7519ZM70.5992 60.956C73.0119 56.8217 74.2218 52.3147 74.2218 47.5H67.2324C67.2324 51.0853 66.3454 54.3717 64.5645 57.424L70.5992 60.956ZM74.2218 47.5C74.2218 42.6853 73.0119 38.1783 70.5992 34.044L64.5645 37.576C66.3454 40.6283 67.2324 43.9147 67.2324 47.5H74.2218ZM70.6159 34.0735C68.2563 29.9376 64.9881 26.6646 60.8587 24.3012L57.3906 30.3788C60.4366 32.1221 62.8067 34.4957 64.5478 37.5465L70.6159 34.0735ZM60.8881 24.3182C56.7601 21.902 52.2597 20.69 47.4523 20.69V27.69C51.0323 27.69 54.3138 28.5779 57.3612 30.3618L60.8881 24.3182ZM47.4523 20.69C42.645 20.69 38.1446 21.902 34.0166 24.3182L37.5435 30.3618C40.5908 28.5779 43.8724 27.69 47.4523 27.69V20.69ZM34.046 24.3012C29.9236 26.6606 26.64 29.9243 24.2356 34.044L30.2703 37.576C32.0596 34.5091 34.4611 32.126 37.5141 30.3788L34.046 24.3012ZM24.2188 34.0735C21.862 38.2039 20.6829 42.7004 20.6829 47.5H27.6723C27.6723 43.8996 28.5432 40.6028 30.2871 37.5465L24.2188 34.0735ZM20.6829 47.5C20.6829 52.2996 21.862 56.7961 24.2188 60.9265L30.2871 57.4535C28.5432 54.3972 27.6723 51.1004 27.6723 47.5H20.6829ZM24.2356 60.956C26.6358 65.0686 29.9103 68.3481 34.0166 70.7519L37.5435 64.7082C34.4744 62.9119 32.0638 60.4977 30.2703 57.424L24.2356 60.956ZM47.5139 47.6087C47.5292 47.6225 47.5257 47.6219 47.5139 47.6049C47.5013 47.5875 47.4859 47.562 47.4726 47.5312C47.4593 47.5006 47.4537 47.4765 47.4516 47.4649C47.4488 47.454 47.4523 47.4639 47.4523 47.5H54.4418C54.4418 45.5757 53.7086 43.824 52.2834 42.4913L47.5139 47.6087ZM47.4523 47.5C47.4523 47.5358 47.4496 47.5502 47.4496 47.5478C47.4502 47.5447 47.4531 47.5336 47.4593 47.5188C47.4649 47.5041 47.4705 47.4963 47.4698 47.4971C47.4691 47.4984 47.4579 47.515 47.4272 47.5451L52.3701 52.4948C53.717 51.146 54.4418 49.4188 54.4418 47.5H47.4523ZM47.4272 47.5451C47.4195 47.5529 47.4237 47.5477 47.4405 47.5365C47.4572 47.5253 47.4782 47.5141 47.4999 47.5053C47.5215 47.4967 47.5334 47.4947 47.5306 47.4952C47.5271 47.4959 47.5027 47.5 47.4523 47.5V54.5C49.2955 54.5 51.019 53.8475 52.3701 52.4948L47.4272 47.5451ZM47.4523 47.5C47.4027 47.5 47.3734 47.4959 47.3622 47.4938C47.351 47.4918 47.3503 47.4908 47.3559 47.493C47.3622 47.4952 47.365 47.4972 47.3629 47.4959C47.3601 47.4944 47.3461 47.4851 47.321 47.4613L42.5514 52.5787C43.9143 53.8525 45.6113 54.5 47.4523 54.5V47.5ZM47.4908 47.6319C47.467 47.6064 47.4579 47.5921 47.4565 47.5897C47.4551 47.5876 47.4572 47.5907 47.4593 47.5965C47.4614 47.6021 47.4607 47.6015 47.4586 47.5904C47.4565 47.5788 47.4523 47.55 47.4523 47.5H40.4629C40.4629 49.3435 41.1095 51.0433 42.3815 52.4081L47.4908 47.6319ZM47.4523 47.5C47.4523 47.4497 47.4565 47.4253 47.4572 47.4217C47.4579 47.4189 47.4558 47.4309 47.4468 47.4523C47.4384 47.4742 47.4272 47.4951 47.416 47.512C47.4048 47.5287 47.3992 47.5327 47.4076 47.5248L42.4647 42.5751C41.1144 43.9278 40.4629 45.6542 40.4629 47.5H47.4523ZM47.4076 47.5248C47.4377 47.4947 47.4537 47.4833 47.4551 47.4824C47.4558 47.4819 47.4481 47.4871 47.4335 47.4933C47.4188 47.4994 47.4076 47.502 47.4048 47.5027C47.402 47.5031 47.4167 47.5 47.4523 47.5V40.5C45.5365 40.5 43.8116 41.2262 42.4647 42.5751L47.4076 47.5248ZM47.4523 47.5C47.4887 47.5 47.4985 47.5032 47.4873 47.5011C47.4761 47.4988 47.4516 47.4927 47.4209 47.4795C47.3901 47.4663 47.365 47.4512 47.3475 47.4387C47.3307 47.4266 47.33 47.4233 47.344 47.4381L52.4533 42.6619C51.1225 41.234 49.3737 40.5 47.4523 40.5V47.5Z" fill="white"/>
<path d="M111.545 110.99C116.997 105.53 123.59 102.8 131.325 102.8C139.06 102.8 145.654 105.53 151.105 110.99C156.557 116.45 159.283 123.053 159.283 130.8C159.283 138.547 156.557 145.15 151.105 150.61C145.654 156.07 139.06 158.8 131.325 158.8C123.59 158.8 116.997 156.07 111.545 150.61C106.094 145.15 103.368 138.547 103.368 130.8C103.368 123.053 106.094 116.45 111.545 110.99ZM119.653 151.03C123.241 153.083 127.132 154.11 131.325 154.11C135.519 154.11 139.41 153.083 142.998 151.03C146.585 148.93 149.405 146.083 151.455 142.49C153.552 138.897 154.6 135 154.6 130.8C154.6 126.6 153.552 122.703 151.455 119.11C149.405 115.517 146.585 112.693 142.998 110.64C139.41 108.54 135.519 107.49 131.325 107.49C127.132 107.49 123.241 108.54 119.653 110.64C116.065 112.693 113.223 115.517 111.126 119.11C109.076 122.703 108.051 126.6 108.051 130.8C108.051 135 109.076 138.897 111.126 142.49C113.223 146.083 116.065 148.93 119.653 151.03ZM133.772 128.35C134.471 129.003 134.82 129.82 134.82 130.8C134.82 131.78 134.471 132.62 133.772 133.32C133.119 133.973 132.304 134.3 131.325 134.3C130.347 134.3 129.508 133.973 128.809 133.32C128.157 132.62 127.831 131.78 127.831 130.8C127.831 129.82 128.157 129.003 128.809 128.35C129.508 127.65 130.347 127.3 131.325 127.3C132.304 127.3 133.119 127.65 133.772 128.35Z" fill="white"/>
<path d="M119.653 151.03L117.89 154.052L117.904 154.06L117.919 154.069L119.653 151.03ZM142.998 151.03L144.732 154.069L144.746 154.06L144.761 154.052L142.998 151.03ZM151.455 142.49L148.437 140.724L148.429 140.739L148.421 140.753L151.455 142.49ZM151.455 119.11L148.421 120.847L148.429 120.861L148.437 120.876L151.455 119.11ZM142.998 110.64L141.234 113.662L141.249 113.67L141.264 113.679L142.998 110.64ZM119.653 110.64L121.387 113.679L121.402 113.67L121.416 113.662L119.653 110.64ZM111.126 119.11L108.109 117.344L108.1 117.359L108.092 117.373L111.126 119.11ZM111.126 142.49L108.092 144.227L108.1 144.241L108.109 144.256L111.126 142.49ZM133.772 128.35L131.217 130.738L131.299 130.827L131.387 130.909L133.772 128.35ZM128.809 133.32L126.254 135.708L126.336 135.797L126.424 135.879L128.809 133.32ZM114.017 113.465C118.81 108.664 124.514 106.3 131.325 106.3V99.3C122.667 99.3 115.184 102.396 109.074 108.515L114.017 113.465ZM131.325 106.3C138.136 106.3 143.84 108.664 148.634 113.465L153.577 108.515C147.467 102.396 139.984 99.3 131.325 99.3V106.3ZM148.634 113.465C153.428 118.266 155.788 123.979 155.788 130.8H162.778C162.778 122.128 159.686 114.634 153.577 108.515L148.634 113.465ZM155.788 130.8C155.788 137.622 153.428 143.334 148.634 148.135L153.577 153.085C159.686 146.966 162.778 139.472 162.778 130.8H155.788ZM148.634 148.135C143.84 152.936 138.136 155.3 131.325 155.3V162.3C139.984 162.3 147.467 159.204 153.577 153.085L148.634 148.135ZM131.325 155.3C124.514 155.3 118.81 152.936 114.017 148.135L109.074 153.085C115.184 159.204 122.667 162.3 131.325 162.3V155.3ZM114.017 148.135C109.223 143.334 106.862 137.622 106.862 130.8H99.8729C99.8729 139.472 102.964 146.966 109.074 153.085L114.017 148.135ZM106.862 130.8C106.862 123.979 109.223 118.266 114.017 113.465L109.074 108.515C102.964 114.634 99.8729 122.128 99.8729 130.8H106.862ZM117.919 154.069C122.043 156.429 126.533 157.61 131.325 157.61V150.61C127.731 150.61 124.439 149.738 121.387 147.991L117.919 154.069ZM131.325 157.61C136.118 157.61 140.607 156.429 144.732 154.069L141.264 147.991C138.212 149.738 134.92 150.61 131.325 150.61V157.61ZM144.761 154.052C148.874 151.644 152.133 148.355 154.489 144.227L148.421 140.753C146.676 143.811 144.296 146.216 141.234 148.008L144.761 154.052ZM154.472 144.256C156.885 140.122 158.095 135.615 158.095 130.8H151.105C151.105 134.385 150.218 137.672 148.437 140.724L154.472 144.256ZM158.095 130.8C158.095 125.985 156.885 121.478 154.472 117.344L148.437 120.876C150.218 123.928 151.105 127.215 151.105 130.8H158.095ZM154.489 117.373C152.129 113.238 148.861 109.964 144.732 107.601L141.264 113.679C144.309 115.422 146.68 117.796 148.421 120.847L154.489 117.373ZM144.761 107.618C140.633 105.202 136.133 103.99 131.325 103.99V110.99C134.905 110.99 138.187 111.878 141.234 113.662L144.761 107.618ZM131.325 103.99C126.518 103.99 122.017 105.202 117.89 107.618L121.416 113.662C124.464 111.878 127.745 110.99 131.325 110.99V103.99ZM117.919 107.601C113.797 109.96 110.513 113.224 108.109 117.344L114.143 120.876C115.932 117.809 118.334 115.426 121.387 113.679L117.919 107.601ZM108.092 117.373C105.735 121.504 104.556 126 104.556 130.8H111.545C111.545 127.2 112.416 123.903 114.16 120.847L108.092 117.373ZM104.556 130.8C104.556 135.6 105.735 140.096 108.092 144.227L114.16 140.753C112.416 137.697 111.545 134.4 111.545 130.8H104.556ZM108.109 144.256C110.509 148.369 113.783 151.648 117.89 154.052L121.416 148.008C118.347 146.212 115.937 143.798 114.143 140.724L108.109 144.256ZM131.387 130.909C131.402 130.923 131.399 130.922 131.387 130.905C131.374 130.887 131.359 130.862 131.346 130.832C131.332 130.801 131.327 130.776 131.325 130.765C131.322 130.754 131.325 130.764 131.325 130.8H138.315C138.315 128.876 137.581 127.124 136.156 125.792L131.387 130.909ZM131.325 130.8C131.325 130.836 131.322 130.85 131.322 130.848C131.323 130.845 131.326 130.834 131.332 130.819C131.338 130.804 131.343 130.797 131.343 130.797C131.342 130.799 131.331 130.815 131.3 130.845L136.243 135.795C137.59 134.446 138.315 132.719 138.315 130.8H131.325ZM131.3 130.845C131.292 130.853 131.297 130.848 131.313 130.836C131.33 130.825 131.351 130.814 131.373 130.806C131.394 130.796 131.406 130.794 131.404 130.795C131.4 130.796 131.376 130.8 131.325 130.8V137.8C133.168 137.8 134.892 137.148 136.243 135.795L131.3 130.845ZM131.325 130.8C131.276 130.8 131.246 130.796 131.235 130.794C131.224 130.792 131.223 130.791 131.229 130.793C131.235 130.795 131.238 130.797 131.236 130.796C131.233 130.794 131.219 130.785 131.194 130.762L126.424 135.879C127.787 137.153 129.484 137.8 131.325 137.8V130.8ZM131.364 130.932C131.34 130.906 131.331 130.892 131.329 130.89C131.328 130.888 131.33 130.89 131.332 130.897C131.334 130.902 131.334 130.902 131.332 130.89C131.329 130.879 131.325 130.85 131.325 130.8H124.336C124.336 132.643 124.982 134.343 126.254 135.708L131.364 130.932ZM131.325 130.8C131.325 130.75 131.329 130.725 131.33 130.722C131.331 130.719 131.329 130.731 131.32 130.752C131.311 130.774 131.3 130.795 131.289 130.812C131.278 130.829 131.272 130.833 131.281 130.825L126.338 125.875C124.987 127.228 124.336 128.954 124.336 130.8H131.325ZM131.281 130.825C131.311 130.794 131.327 130.783 131.328 130.783C131.329 130.782 131.321 130.787 131.306 130.793C131.292 130.799 131.281 130.802 131.278 130.803C131.275 130.803 131.29 130.8 131.325 130.8V123.8C129.409 123.8 127.684 124.526 126.338 125.875L131.281 130.825ZM131.325 130.8C131.362 130.8 131.371 130.804 131.36 130.801C131.349 130.799 131.325 130.793 131.294 130.78C131.263 130.766 131.238 130.751 131.22 130.738C131.204 130.727 131.203 130.723 131.217 130.738L136.326 125.962C134.995 124.534 133.247 123.8 131.325 123.8V130.8Z" fill="white"/>
<path d="M111.545 194.29C116.997 188.83 123.59 186.1 131.325 186.1C139.06 186.1 145.654 188.83 151.105 194.29C156.557 199.75 159.283 206.353 159.283 214.1C159.283 221.847 156.557 228.45 151.105 233.91C145.654 239.37 139.06 242.1 131.325 242.1C123.59 242.1 116.997 239.37 111.545 233.91C106.094 228.45 103.368 221.847 103.368 214.1C103.368 206.353 106.094 199.75 111.545 194.29ZM119.653 234.33C123.241 236.383 127.132 237.41 131.325 237.41C135.519 237.41 139.41 236.383 142.998 234.33C146.585 232.23 149.405 229.383 151.455 225.79C153.552 222.197 154.6 218.3 154.6 214.1C154.6 209.9 153.552 206.003 151.455 202.41C149.405 198.817 146.585 195.993 142.998 193.94C139.41 191.84 135.519 190.79 131.325 190.79C127.132 190.79 123.241 191.84 119.653 193.94C116.065 195.993 113.223 198.817 111.126 202.41C109.076 206.003 108.051 209.9 108.051 214.1C108.051 218.3 109.076 222.197 111.126 225.79C113.223 229.383 116.065 232.23 119.653 234.33ZM133.772 211.65C134.471 212.303 134.82 213.12 134.82 214.1C134.82 215.08 134.471 215.92 133.772 216.62C133.119 217.273 132.304 217.6 131.325 217.6C130.347 217.6 129.508 217.273 128.809 216.62C128.157 215.92 127.831 215.08 127.831 214.1C127.831 213.12 128.157 212.303 128.809 211.65C129.508 210.95 130.347 210.6 131.325 210.6C132.304 210.6 133.119 210.95 133.772 211.65Z" fill="white"/>
<path d="M119.653 234.33L117.89 237.352L117.904 237.36L117.919 237.369L119.653 234.33ZM142.998 234.33L144.732 237.369L144.746 237.36L144.761 237.352L142.998 234.33ZM151.455 225.79L148.437 224.024L148.429 224.039L148.421 224.053L151.455 225.79ZM151.455 202.41L148.421 204.147L148.429 204.161L148.437 204.176L151.455 202.41ZM142.998 193.94L141.234 196.962L141.249 196.97L141.264 196.979L142.998 193.94ZM119.653 193.94L121.387 196.979L121.402 196.97L121.416 196.962L119.653 193.94ZM111.126 202.41L108.109 200.644L108.1 200.659L108.092 200.673L111.126 202.41ZM111.126 225.79L108.092 227.527L108.1 227.541L108.109 227.556L111.126 225.79ZM133.772 211.65L131.217 214.038L131.299 214.127L131.387 214.209L133.772 211.65ZM128.809 216.62L126.254 219.008L126.336 219.097L126.424 219.179L128.809 216.62ZM114.017 196.765C118.81 191.964 124.514 189.6 131.325 189.6V182.6C122.667 182.6 115.184 185.696 109.074 191.815L114.017 196.765ZM131.325 189.6C138.136 189.6 143.84 191.964 148.634 196.765L153.577 191.815C147.467 185.696 139.984 182.6 131.325 182.6V189.6ZM148.634 196.765C153.428 201.566 155.788 207.279 155.788 214.1H162.778C162.778 205.428 159.686 197.934 153.577 191.815L148.634 196.765ZM155.788 214.1C155.788 220.922 153.428 226.634 148.634 231.435L153.577 236.385C159.686 230.266 162.778 222.772 162.778 214.1H155.788ZM148.634 231.435C143.84 236.236 138.136 238.6 131.325 238.6V245.6C139.984 245.6 147.467 242.504 153.577 236.385L148.634 231.435ZM131.325 238.6C124.514 238.6 118.81 236.236 114.017 231.435L109.074 236.385C115.184 242.504 122.667 245.6 131.325 245.6V238.6ZM114.017 231.435C109.223 226.634 106.862 220.922 106.862 214.1H99.8729C99.8729 222.772 102.964 230.266 109.074 236.385L114.017 231.435ZM106.862 214.1C106.862 207.279 109.223 201.566 114.017 196.765L109.074 191.815C102.964 197.934 99.8729 205.428 99.8729 214.1H106.862ZM117.919 237.369C122.043 239.729 126.533 240.91 131.325 240.91V233.91C127.731 233.91 124.439 233.038 121.387 231.291L117.919 237.369ZM131.325 240.91C136.118 240.91 140.607 239.729 144.732 237.369L141.264 231.291C138.212 233.038 134.92 233.91 131.325 233.91V240.91ZM144.761 237.352C148.874 234.944 152.133 231.655 154.489 227.527L148.421 224.053C146.676 227.111 144.296 229.516 141.234 231.308L144.761 237.352ZM154.472 227.556C156.885 223.422 158.095 218.915 158.095 214.1H151.105C151.105 217.685 150.218 220.972 148.437 224.024L154.472 227.556ZM158.095 214.1C158.095 209.285 156.885 204.778 154.472 200.644L148.437 204.176C150.218 207.228 151.105 210.515 151.105 214.1H158.095ZM154.489 200.673C152.129 196.538 148.861 193.265 144.732 190.901L141.264 196.979C144.309 198.722 146.68 201.096 148.421 204.147L154.489 200.673ZM144.761 190.918C140.633 188.502 136.133 187.29 131.325 187.29V194.29C134.905 194.29 138.187 195.178 141.234 196.962L144.761 190.918ZM131.325 187.29C126.518 187.29 122.017 188.502 117.89 190.918L121.416 196.962C124.464 195.178 127.745 194.29 131.325 194.29V187.29ZM117.919 190.901C113.797 193.26 110.513 196.524 108.109 200.644L114.143 204.176C115.932 201.109 118.334 198.726 121.387 196.979L117.919 190.901ZM108.092 200.673C105.735 204.804 104.556 209.3 104.556 214.1H111.545C111.545 210.5 112.416 207.203 114.16 204.147L108.092 200.673ZM104.556 214.1C104.556 218.9 105.735 223.396 108.092 227.527L114.16 224.053C112.416 220.997 111.545 217.7 111.545 214.1H104.556ZM108.109 227.556C110.509 231.669 113.783 234.948 117.89 237.352L121.416 231.308C118.347 229.512 115.937 227.098 114.143 224.024L108.109 227.556ZM131.387 214.209C131.402 214.223 131.399 214.222 131.387 214.205C131.374 214.188 131.359 214.162 131.346 214.132C131.332 214.101 131.327 214.076 131.325 214.065C131.322 214.054 131.325 214.064 131.325 214.1H138.315C138.315 212.176 137.581 210.424 136.156 209.092L131.387 214.209ZM131.325 214.1C131.325 214.136 131.322 214.15 131.322 214.148C131.323 214.145 131.326 214.134 131.332 214.119C131.338 214.104 131.343 214.097 131.343 214.097C131.342 214.099 131.331 214.115 131.3 214.145L136.243 219.095C137.59 217.746 138.315 216.019 138.315 214.1H131.325ZM131.3 214.145C131.292 214.153 131.297 214.148 131.313 214.136C131.33 214.125 131.351 214.114 131.373 214.106C131.394 214.097 131.406 214.094 131.404 214.095C131.4 214.096 131.376 214.1 131.325 214.1V221.1C133.168 221.1 134.892 220.448 136.243 219.095L131.3 214.145ZM131.325 214.1C131.276 214.1 131.246 214.096 131.235 214.094C131.224 214.092 131.223 214.091 131.229 214.093C131.235 214.095 131.238 214.097 131.236 214.096C131.233 214.094 131.219 214.085 131.194 214.062L126.424 219.179C127.787 220.453 129.484 221.1 131.325 221.1V214.1ZM131.364 214.232C131.34 214.206 131.331 214.192 131.329 214.19C131.328 214.187 131.33 214.19 131.332 214.197C131.334 214.202 131.334 214.202 131.332 214.19C131.329 214.179 131.325 214.15 131.325 214.1H124.336C124.336 215.943 124.982 217.643 126.254 219.008L131.364 214.232ZM131.325 214.1C131.325 214.05 131.329 214.025 131.33 214.022C131.331 214.019 131.329 214.031 131.32 214.052C131.311 214.074 131.3 214.095 131.289 214.112C131.278 214.129 131.272 214.133 131.281 214.125L126.338 209.175C124.987 210.528 124.336 212.254 124.336 214.1H131.325ZM131.281 214.125C131.311 214.094 131.327 214.083 131.328 214.083C131.329 214.082 131.321 214.087 131.306 214.093C131.292 214.099 131.281 214.102 131.278 214.103C131.275 214.103 131.29 214.1 131.325 214.1V207.1C129.409 207.1 127.684 207.826 126.338 209.175L131.281 214.125ZM131.325 214.1C131.362 214.1 131.371 214.104 131.36 214.101C131.349 214.099 131.325 214.093 131.294 214.08C131.263 214.066 131.238 214.051 131.22 214.038C131.204 214.026 131.203 214.023 131.217 214.038L136.326 209.262C134.995 207.834 133.247 207.1 131.325 207.1V214.1Z" fill="white"/>
</svg>
